<?xml version="1.0" encoding="UTF-8" standalone="no"?>
<svg
   xmlns:osb="http://www.openswatchbook.org/uri/2009/osb"
   xmlns:dc="http://purl.org/dc/elements/1.1/"
   xmlns:cc="http://creativecommons.org/ns#"
   xmlns:rdf="http://www.w3.org/1999/02/22-rdf-syntax-ns#"
   xmlns:svg="http://www.w3.org/2000/svg"
   xmlns="http://www.w3.org/2000/svg"
   xmlns:sodipodi="http://sodipodi.sourceforge.net/DTD/sodipodi-0.dtd"
   xmlns:inkscape="http://www.inkscape.org/namespaces/inkscape"
   sodipodi:docname="discard.svg"
   inkscape:version="1.0 (4035a4f, 2020-05-01)"
   id="svg2080"
   version="1.1"
   viewBox="0 0 921.44445 20.310083"
   height="20.310083mm"
   width="195.03908mm"
   class="animated">
  <defs
     id="defs2074">
    <linearGradient
       id="linearGradient3355"
       osb:paint="solid">
      <stop
         style="stop-color:#0000ff;stop-opacity:1;"
         offset="0"
         id="stop3353" />
    </linearGradient>
    <inkscape:path-effect
       effect="bspline"
       id="path-effect909"
       is_visible="true"
       lpeversion="1"
       weight="33.333333"
       steps="2"
       helper_size="0"
       apply_no_weight="true"
       apply_with_weight="true"
       only_selected="false" />
    <inkscape:path-effect
       only_selected="false"
       apply_with_weight="true"
       apply_no_weight="true"
       helper_size="0"
       steps="2"
       weight="33.333333"
       lpeversion="1"
       is_visible="true"
       id="path-effect2849"
       effect="bspline" />
    <inkscape:path-effect
       only_selected="false"
       apply_with_weight="true"
       apply_no_weight="true"
       helper_size="0"
       steps="2"
       weight="33.333333"
       lpeversion="1"
       is_visible="true"
       id="path-effect2845"
       effect="bspline" />
    <rect
       id="rect2647"
       height="21.960417"
       width="23.547916"
       y="117.21042"
       x="25.4" />
    <rect
       x="25.4"
       y="117.21042"
       width="23.547916"
       height="21.960417"
       id="rect2835" />
    <rect
       id="rect2841"
       height="21.960417"
       width="23.547916"
       y="117.21042"
       x="25.4" />
  </defs>
  <sodipodi:namedview
     inkscape:window-maximized="0"
     inkscape:window-y="23"
     inkscape:window-x="0"
     inkscape:window-height="1005"
     inkscape:window-width="1680"
     fit-margin-bottom="0"
     fit-margin-right="0"
     fit-margin-left="0"
     fit-margin-top="0"
     showgrid="false"
     inkscape:document-rotation="0"
     inkscape:current-layer="layer1"
     inkscape:document-units="mm"
     inkscape:cy="31.360262"
     inkscape:cx="85.743066"
     inkscape:zoom="3.4055229"
     inkscape:pageshadow="2"
     inkscape:pageopacity="0.0"
     borderopacity="1.0"
     bordercolor="#666666"
     pagecolor="#ffffff"
     id="base" />
  <metadata
     id="metadata2077">
    <rdf:RDF>
      <cc:Work
         rdf:about="">
        <dc:format>image/svg+xml</dc:format>
        <dc:type
           rdf:resource="http://purl.org/dc/dcmitype/StillImage" />
        <dc:title></dc:title>
      </cc:Work>
    </rdf:RDF>
  </metadata>
  <g
     transform="translate(-16.063988,-144.59981)"
     id="layer1"
     inkscape:groupmode="layer"
     inkscape:label="Layer 1">
    <rect
       y="109.75485"
       x="19.040558"
       height="90"
       width="90"
       id="rect2643"
       style="fill:none;stroke:#ff5555;stroke-width:1.72125;stop-color:#000000" />
    <rect
       style="fill:#bee4fd;fill-opacity:1;stroke:#3e4837;stroke-width:5.95314;stroke-miterlimit:4;stroke-dasharray:none;stroke-opacity:1;stop-color:#000000"
       id="rect2704"
       width="90"
       height="90"
       x="19.040558"
       y="109.75485" />
    <g
       aria-label="0"
       id="text2708"
       style="font-style:normal;font-variant:normal;font-weight:normal;font-stretch:normal;font-size:9.87778px;line-height:1.25;font-family:sans-serif;-inkscape-font-specification:'sans-serif, Normal';font-variant-ligatures:normal;font-variant-caps:normal;font-variant-numeric:normal;font-variant-east-asian:normal;white-space:pre;shape-inside:url(#rect2647);fill:#000000;fill-opacity:1;stroke:none"
       transform="matrix(2.25,0,0,2.25,-20.079982,-133.47285)">
      <path
         d="m 39.8708,128.096 c 0,1.29 -0.2026,2.237 -0.6077,2.841 -0.4019,0.601 -1.0273,0.902 -1.8762,0.902 -0.8617,0 -1.492,-0.305 -1.8907,-0.916 -0.3955,-0.611 -0.5932,-1.55 -0.5932,-2.817 0,-1.277 0.201,-2.219 0.6029,-2.826 0.4019,-0.611 1.0289,-0.917 1.881,-0.917 0.8617,0 1.4904,0.311 1.8859,0.931 0.3987,0.617 0.598,1.552 0.598,2.802 z m -1.2685,2.19 c 0.1126,-0.26 0.1881,-0.566 0.2267,-0.916 0.0418,-0.354 0.0627,-0.778 0.0627,-1.274 0,-0.488 -0.0209,-0.913 -0.0627,-1.273 -0.0386,-0.36 -0.1157,-0.666 -0.2315,-0.916 -0.1125,-0.248 -0.2669,-0.434 -0.463,-0.56 -0.1929,-0.125 -0.4421,-0.188 -0.7476,-0.188 -0.3022,0 -0.553,0.063 -0.7524,0.188 -0.1961,0.126 -0.3521,0.315 -0.4678,0.569 -0.1094,0.238 -0.1849,0.549 -0.2267,0.931 -0.0386,0.383 -0.0579,0.802 -0.0579,1.259 0,0.502 0.0177,0.921 0.053,1.259 0.0354,0.337 0.111,0.64 0.2267,0.907 0.1061,0.25 0.2557,0.442 0.4486,0.574 0.1961,0.131 0.455,0.197 0.7765,0.197 0.3023,0 0.5531,-0.062 0.7524,-0.188 0.1994,-0.125 0.3537,-0.315 0.463,-0.569 z"
         style="font-style:normal;font-variant:normal;font-weight:normal;font-stretch:normal;font-size:9.87778px;font-family:sans-serif;-inkscape-font-specification:'sans-serif, Normal';font-variant-ligatures:normal;font-variant-caps:normal;font-variant-numeric:normal;font-variant-east-asian:normal"
         id="path3657" />
    </g>
    <rect
       style="fill:#bee4fd;fill-opacity:1;stroke:#3e4837;stroke-width:5.95314;stroke-miterlimit:4;stroke-dasharray:none;stroke-opacity:1;stop-color:#000000"
       id="rect2712"
       width="90"
       height="90"
       x="110.7618"
       y="109.75485" />
    <g
       aria-label="1"
       id="text2716"
       style="font-style:normal;font-variant:normal;font-weight:normal;font-stretch:normal;font-size:9.87778px;line-height:1.25;font-family:sans-serif;-inkscape-font-specification:'sans-serif, Normal';font-variant-ligatures:normal;font-variant-caps:normal;font-variant-numeric:normal;font-variant-east-asian:normal;white-space:pre;shape-inside:url(#rect2647);fill:#000000;fill-opacity:1;stroke:none"
       transform="matrix(2.25,0,0,2.25,-20.079982,-133.47285)">
      <path
         d="m 80.0957,131.704 h -3.8875 v -0.733 h 1.4952 v -4.814 h -1.4952 v -0.655 c 0.2026,0 0.4196,-0.017 0.6511,-0.049 0.2316,-0.035 0.4068,-0.085 0.5258,-0.149 0.1479,-0.081 0.2636,-0.182 0.3472,-0.304 0.0868,-0.125 0.1367,-0.293 0.1496,-0.502 h 0.7475 v 6.473 h 1.4663 z"
         style="font-style:normal;font-variant:normal;font-weight:normal;font-stretch:normal;font-size:9.87778px;font-family:sans-serif;-inkscape-font-specification:'sans-serif, Normal';font-variant-ligatures:normal;font-variant-caps:normal;font-variant-numeric:normal;font-variant-east-asian:normal"
         id="path3660" />
    </g>
    <rect
       style="fill:#bee4fd;fill-opacity:1;stroke:#3e4837;stroke-width:5.95314;stroke-miterlimit:4;stroke-dasharray:none;stroke-opacity:1;stop-color:#000000"
       id="rect2720"
       width="90"
       height="90"
       x="202.48308"
       y="109.75485" />
    <g
       aria-label="2"
       id="text2724"
       style="font-style:normal;font-variant:normal;font-weight:normal;font-stretch:normal;font-size:9.87778px;line-height:1.25;font-family:sans-serif;-inkscape-font-specification:'sans-serif, Normal';font-variant-ligatures:normal;font-variant-caps:normal;font-variant-numeric:normal;font-variant-east-asian:normal;white-space:pre;shape-inside:url(#rect2647);fill:#000000;fill-opacity:1;stroke:none"
       transform="matrix(2.25,0,0,2.25,-20.079982,-133.47285)">
      <path
         d="m 121.348,131.767 h -4.862 v -1.008 c 0.338,-0.29 0.675,-0.579 1.013,-0.868 0.341,-0.29 0.657,-0.578 0.95,-0.864 0.617,-0.598 1.04,-1.072 1.269,-1.423 0.228,-0.353 0.342,-0.734 0.342,-1.143 0,-0.373 -0.124,-0.664 -0.371,-0.873 -0.245,-0.212 -0.587,-0.318 -1.028,-0.318 -0.292,0 -0.609,0.051 -0.95,0.154 -0.341,0.103 -0.674,0.261 -0.998,0.473 h -0.049 v -1.013 c 0.229,-0.112 0.533,-0.215 0.912,-0.309 0.383,-0.093 0.752,-0.139 1.109,-0.139 0.737,0 1.314,0.178 1.732,0.535 0.418,0.354 0.627,0.834 0.627,1.442 0,0.273 -0.035,0.529 -0.106,0.767 -0.068,0.235 -0.169,0.458 -0.304,0.67 -0.125,0.2 -0.273,0.396 -0.444,0.589 -0.167,0.193 -0.371,0.407 -0.612,0.641 -0.344,0.338 -0.7,0.666 -1.066,0.984 -0.367,0.315 -0.709,0.608 -1.028,0.878 h 3.864 z"
         style="font-style:normal;font-variant:normal;font-weight:normal;font-stretch:normal;font-size:9.87778px;font-family:sans-serif;-inkscape-font-specification:'sans-serif, Normal';font-variant-ligatures:normal;font-variant-caps:normal;font-variant-numeric:normal;font-variant-east-asian:normal"
         id="path3663" />
    </g>
    <rect
       style="fill:#bee4fd;fill-opacity:1;stroke:#3e4837;stroke-width:5.95314;stroke-miterlimit:4;stroke-dasharray:none;stroke-opacity:1;stop-color:#000000"
       id="rect2728"
       width="90"
       height="90"
       x="294.20428"
       y="109.75485" />
    <rect
       style="fill:#bee4fd;fill-opacity:1;stroke:#3e4837;stroke-width:5.95314;stroke-miterlimit:4;stroke-dasharray:none;stroke-opacity:1;stop-color:#000000"
       id="rect2736"
       width="90"
       height="90"
       x="385.92554"
       y="109.75485" />
    <path
       id="rect2744"
       style="fill:#bee4fd;fill-opacity:1;stroke:#3e4837;stroke-width:5.95311;stroke-miterlimit:4;stroke-dasharray:none;stroke-opacity:1;stop-color:#000000"
       d="m 477.64682,109.75485 h 90 v 90 h -90 z" />
    <rect
       style="fill:#bee4fd;fill-opacity:1;stroke:#3e4837;stroke-width:5.95314;stroke-miterlimit:4;stroke-dasharray:none;stroke-opacity:1;stop-color:#000000"
       id="rect2752"
       width="90"
       height="90"
       x="569.3681"
       y="109.75485" />
    <g
       aria-label="R"
       id="text2756"
       style="font-style:normal;font-variant:normal;font-weight:normal;font-stretch:normal;font-size:9.87778px;line-height:1.25;font-family:sans-serif;-inkscape-font-specification:'sans-serif, Normal';font-variant-ligatures:normal;font-variant-caps:normal;font-variant-numeric:normal;font-variant-east-asian:normal;white-space:pre;shape-inside:url(#rect2647);fill:#000000;fill-opacity:1;stroke:none"
       transform="matrix(2.25,0,0,2.25,-20.079982,-133.47285)">
      <path
         d="m 284.948,131.692 h -1.239 l -2.402,-2.855 h -1.346 v 2.855 h -0.955 v -7.182 h 2.011 c 0.434,0 0.796,0.029 1.085,0.087 0.29,0.055 0.55,0.155 0.782,0.299 0.26,0.164 0.463,0.372 0.608,0.622 0.147,0.248 0.221,0.563 0.221,0.946 0,0.517 -0.13,0.951 -0.39,1.302 -0.261,0.347 -0.619,0.609 -1.076,0.786 z m -2.233,-5.161 c 0,-0.206 -0.037,-0.387 -0.111,-0.545 -0.071,-0.161 -0.19,-0.296 -0.357,-0.405 -0.138,-0.093 -0.302,-0.157 -0.492,-0.193 -0.19,-0.038 -0.413,-0.058 -0.67,-0.058 h -1.124 v 2.711 h 0.965 c 0.302,0 0.566,-0.026 0.791,-0.077 0.225,-0.055 0.416,-0.155 0.574,-0.299 0.144,-0.135 0.25,-0.29 0.318,-0.463 0.071,-0.177 0.106,-0.401 0.106,-0.671 z"
         style="font-style:normal;font-variant:normal;font-weight:normal;font-stretch:normal;font-size:9.87778px;font-family:sans-serif;-inkscape-font-specification:'sans-serif, Normal';font-variant-ligatures:normal;font-variant-caps:normal;font-variant-numeric:normal;font-variant-east-asian:normal"
         id="path3673" />
    </g>
    <g
       aria-label="…"
       id="text2833"
       style="font-style:normal;font-variant:normal;font-weight:normal;font-stretch:normal;font-size:9.87778px;line-height:1.25;font-family:sans-serif;-inkscape-font-specification:'sans-serif, Normal';font-variant-ligatures:normal;font-variant-caps:normal;font-variant-numeric:normal;font-variant-east-asian:normal;white-space:pre;shape-inside:url(#rect2835);fill:#000000;fill-opacity:1;stroke:none"
       transform="matrix(2.25,0,0,2.25,-20.079982,-133.47285)">
      <path
         d="m 244.395,128.639 h -0.983 v -1.076 h 0.983 z m -2.691,0 h -0.984 v -1.076 h 0.984 z m -2.691,0 h -0.984 v -1.076 h 0.984 z"
         style="font-style:normal;font-variant:normal;font-weight:normal;font-stretch:normal;font-size:9.87778px;font-family:sans-serif;-inkscape-font-specification:'sans-serif, Normal';font-variant-ligatures:normal;font-variant-caps:normal;font-variant-numeric:normal;font-variant-east-asian:normal"
         id="path3771" />
    </g>
    <g
       aria-label="…"
       id="text2839"
       style="font-style:normal;font-variant:normal;font-weight:normal;font-stretch:normal;font-size:9.87778px;line-height:1.25;font-family:sans-serif;-inkscape-font-specification:'sans-serif, Normal';font-variant-ligatures:normal;font-variant-caps:normal;font-variant-numeric:normal;font-variant-east-asian:normal;white-space:pre;shape-inside:url(#rect2841);fill:#000000;fill-opacity:1;stroke:none"
       transform="matrix(2.25,0,0,2.25,-20.079982,-133.47285)">
      <path
         d="m 203.63,128.639 h -0.983 v -1.076 h 0.983 z m -2.691,0 h -0.984 v -1.076 h 0.984 z m -2.691,0 h -0.984 v -1.076 h 0.984 z"
         style="font-style:normal;font-variant:normal;font-weight:normal;font-stretch:normal;font-size:9.87778px;font-family:sans-serif;-inkscape-font-specification:'sans-serif, Normal';font-variant-ligatures:normal;font-variant-caps:normal;font-variant-numeric:normal;font-variant-east-asian:normal"
         id="path3667" />
    </g>
    <g
       transform="matrix(3,0,0,3,-32.127974,-213.55656)"
       class="disappear"
       style="animation-delay: 3s"
       id="g1116">
      <g
         id="g3899">
        <rect
           style="fill:#bee4fd;fill-opacity:1;stroke:#3e4837;stroke-width:1.98438;stroke-miterlimit:4;stroke-dasharray:none;stroke-opacity:1;stop-color:#000000"
           id="rect2760"
           width="30"
           height="30"
           x="231.07243"
           y="107.77047" />
        <g
           aria-label="R+1"
           id="text2764"
           style="font-style:normal;font-variant:normal;font-weight:normal;font-stretch:normal;font-size:9.87778px;line-height:1.25;font-family:sans-serif;-inkscape-font-specification:'sans-serif, Normal';font-variant-ligatures:normal;font-variant-caps:normal;font-variant-numeric:normal;font-variant-east-asian:normal;white-space:pre;shape-inside:url(#rect2647);fill:#000000;fill-opacity:1;stroke:none"
           transform="matrix(0.75,0,0,0.75,4.0159973,26.69457)">
          <path
             d="m 319.076,131.704 h -1.239 l -2.402,-2.855 h -1.346 v 2.855 h -0.955 v -7.182 h 2.011 c 0.434,0 0.796,0.029 1.085,0.087 0.29,0.055 0.55,0.155 0.782,0.299 0.26,0.164 0.463,0.372 0.608,0.622 0.147,0.248 0.221,0.563 0.221,0.946 0,0.517 -0.13,0.952 -0.39,1.302 -0.261,0.347 -0.619,0.609 -1.076,0.786 z m -2.233,-5.161 c 0,-0.205 -0.037,-0.387 -0.111,-0.545 -0.071,-0.16 -0.19,-0.296 -0.357,-0.405 -0.138,-0.093 -0.302,-0.157 -0.492,-0.193 -0.19,-0.038 -0.413,-0.058 -0.67,-0.058 h -1.124 v 2.711 h 0.965 c 0.302,0 0.566,-0.026 0.791,-0.077 0.225,-0.055 0.416,-0.155 0.574,-0.299 0.144,-0.135 0.25,-0.29 0.318,-0.463 0.071,-0.177 0.106,-0.401 0.106,-0.671 z"
             style="font-style:normal;font-variant:normal;font-weight:normal;font-stretch:normal;font-size:9.87778px;font-family:sans-serif;-inkscape-font-specification:'sans-serif, Normal';font-variant-ligatures:normal;font-variant-caps:normal;font-variant-numeric:normal;font-variant-east-asian:normal"
             id="path3676" />
          <path
             d="m 326.108,128.945 h -2.628 v 2.629 h -0.801 v -2.629 h -2.629 v -0.771 h 2.629 v -2.629 h 0.801 v 2.629 h 2.628 z"
             style="font-style:normal;font-variant:normal;font-weight:normal;font-stretch:normal;font-size:9.87778px;font-family:sans-serif;-inkscape-font-specification:'sans-serif, Normal';font-variant-ligatures:normal;font-variant-caps:normal;font-variant-numeric:normal;font-variant-east-asian:normal"
             id="path3678" />
          <path
             d="m 332.349,131.704 h -3.887 v -0.733 h 1.495 v -4.814 h -1.495 v -0.655 c 0.203,0 0.42,-0.017 0.651,-0.049 0.232,-0.035 0.407,-0.085 0.526,-0.149 0.148,-0.081 0.263,-0.182 0.347,-0.304 0.087,-0.125 0.137,-0.293 0.15,-0.502 h 0.747 v 6.473 h 1.466 z"
             style="font-style:normal;font-variant:normal;font-weight:normal;font-stretch:normal;font-size:9.87778px;font-family:sans-serif;-inkscape-font-specification:'sans-serif, Normal';font-variant-ligatures:normal;font-variant-caps:normal;font-variant-numeric:normal;font-variant-east-asian:normal"
             id="path3680" />
        </g>
      </g>
      <g
         id="g3892">
        <rect
           style="fill:#bee4fd;fill-opacity:1;stroke:#3e4837;stroke-width:1.98438;stroke-miterlimit:4;stroke-dasharray:none;stroke-opacity:1;stop-color:#000000"
           id="rect2768"
           width="30"
           height="30"
           x="261.64618"
           y="107.77047" />
        <g
           aria-label="…"
           id="text2772"
           style="font-style:normal;font-variant:normal;font-weight:normal;font-stretch:normal;font-size:9.87778px;line-height:1.25;font-family:sans-serif;-inkscape-font-specification:'sans-serif, Normal';font-variant-ligatures:normal;font-variant-caps:normal;font-variant-numeric:normal;font-variant-east-asian:normal;white-space:pre;shape-inside:url(#rect2647);fill:#000000;fill-opacity:1;stroke:none"
           transform="matrix(0.75,0,0,0.75,4.0159973,26.69457)">
          <path
             d="m 366.69,128.639 h -0.983 v -1.076 h 0.983 z m -2.691,0 h -0.984 v -1.076 h 0.984 z m -2.691,0 h -0.984 v -1.076 h 0.984 z"
             style="font-style:normal;font-variant:normal;font-weight:normal;font-stretch:normal;font-size:9.87778px;font-family:sans-serif;-inkscape-font-specification:'sans-serif, Normal';font-variant-ligatures:normal;font-variant-caps:normal;font-variant-numeric:normal;font-variant-east-asian:normal"
             id="path3683" />
        </g>
      </g>
      <g
         id="g3887">
        <rect
           style="fill:#bee4fd;fill-opacity:1;stroke:#3e4837;stroke-width:1.98438;stroke-miterlimit:4;stroke-dasharray:none;stroke-opacity:1;stop-color:#000000"
           id="rect2776"
           width="30"
           height="30"
           x="292.21994"
           y="107.77047" />
        <g
           aria-label="P"
           id="text2780"
           style="font-style:normal;font-variant:normal;font-weight:normal;font-stretch:normal;font-size:9.87778px;line-height:1.25;font-family:sans-serif;-inkscape-font-specification:'sans-serif, Normal';font-variant-ligatures:normal;font-variant-caps:normal;font-variant-numeric:normal;font-variant-east-asian:normal;white-space:pre;shape-inside:url(#rect2647);fill:#000000;fill-opacity:1;stroke:none"
           transform="matrix(0.75,0,0,0.75,4.0159973,26.69457)">
          <path
             d="m 406.621,126.681 c 0,0.318 -0.057,0.614 -0.169,0.887 -0.109,0.27 -0.264,0.505 -0.463,0.704 -0.248,0.248 -0.54,0.434 -0.878,0.56 -0.338,0.122 -0.764,0.183 -1.278,0.183 h -0.955 v 2.677 h -0.955 v -7.182 h 1.949 c 0.43,0 0.795,0.037 1.094,0.111 0.299,0.071 0.565,0.184 0.796,0.338 0.274,0.183 0.484,0.411 0.632,0.685 0.151,0.273 0.227,0.619 0.227,1.037 z m -0.994,0.024 c 0,-0.248 -0.043,-0.463 -0.13,-0.646 -0.087,-0.184 -0.219,-0.333 -0.396,-0.449 -0.154,-0.1 -0.331,-0.17 -0.53,-0.212 -0.196,-0.045 -0.445,-0.068 -0.748,-0.068 h -0.945 v 2.87 h 0.805 c 0.386,0 0.7,-0.034 0.941,-0.101 0.241,-0.071 0.437,-0.182 0.588,-0.333 0.152,-0.154 0.258,-0.317 0.319,-0.487 0.064,-0.171 0.096,-0.362 0.096,-0.574 z"
             style="font-style:normal;font-variant:normal;font-weight:normal;font-stretch:normal;font-size:9.87778px;font-family:sans-serif;-inkscape-font-specification:'sans-serif, Normal';font-variant-ligatures:normal;font-variant-caps:normal;font-variant-numeric:normal;font-variant-east-asian:normal"
             id="path3768" />
        </g>
        <g
           id="g2852"
           style="fill:#cccccc;stroke:#000000;stroke-width:0;stroke-miterlimit:4;stroke-dasharray:none;stroke-opacity:1"
           transform="matrix(0.75,0,0,0.75,4.0159973,26.69457)">
          <path
             style="fill:#cccccc;stroke:#000000;stroke-width:0;stroke-linecap:butt;stroke-linejoin:miter;stroke-miterlimit:4;stroke-dasharray:none;stroke-opacity:1"
             d="m 424.27192,108.1012 c 0,0 -40.76499,40 -40.76499,40"
             id="path2843">
            <path
               id="path2847"
               d="m 383.50693,108.1012 c 0,0 40.76499,40 40.76499,40"
               style="fill:#cccccc;stroke:#000000;stroke-width:0;stroke-linecap:butt;stroke-linejoin:miter;stroke-opacity:1;stroke-miterlimit:4;stroke-dasharray:none" />
          </path>
        </g>
        <path
           style="fill:#cccccc;stroke:#000000;stroke-width:0;stroke-linecap:butt;stroke-linejoin:miter;stroke-miterlimit:4;stroke-dasharray:none;stroke-opacity:1"
           d="m 292.21994,107.77047 c 10.00019,10.0002 20.00019,20.0002 30,30"
           id="path907" />
      </g>
    </g>
    <g
       aria-label="3"
       id="text1144"
       style="font-style:normal;font-variant:normal;font-weight:normal;font-stretch:normal;font-size:8.33333px;line-height:1.25;font-family:sans-serif;-inkscape-font-specification:'sans-serif, Normal';font-variant-ligatures:normal;font-variant-caps:normal;font-variant-numeric:normal;font-variant-east-asian:normal;white-space:pre;shape-inside:url(#rect1146)"
       transform="matrix(3,0,0,3,-32.128214,-213.55665)">
      <path
         d="m 125.326,122.882 c 0.13,0.117 0.237,0.263 0.321,0.44 0.084,0.176 0.126,0.404 0.126,0.683 0,0.277 -0.05,0.531 -0.15,0.761 -0.101,0.231 -0.242,0.432 -0.424,0.603 -0.203,0.189 -0.443,0.33 -0.72,0.423 -0.274,0.089 -0.575,0.134 -0.903,0.134 -0.336,0 -0.667,-0.041 -0.993,-0.122 -0.325,-0.079 -0.593,-0.166 -0.801,-0.261 v -0.85 h 0.061 c 0.23,0.152 0.501,0.278 0.813,0.378 0.312,0.101 0.613,0.151 0.904,0.151 0.171,0 0.352,-0.028 0.545,-0.085 0.193,-0.057 0.349,-0.141 0.468,-0.253 0.125,-0.119 0.217,-0.251 0.277,-0.394 0.062,-0.144 0.093,-0.326 0.093,-0.546 0,-0.217 -0.035,-0.396 -0.106,-0.537 -0.067,-0.144 -0.162,-0.256 -0.284,-0.337 -0.123,-0.085 -0.27,-0.142 -0.444,-0.171 -0.174,-0.033 -0.361,-0.049 -0.562,-0.049 h -0.366 v -0.676 h 0.285 c 0.412,0 0.741,-0.085 0.985,-0.256 0.247,-0.174 0.37,-0.426 0.37,-0.757 0,-0.146 -0.031,-0.274 -0.094,-0.382 -0.062,-0.112 -0.149,-0.202 -0.26,-0.273 -0.117,-0.07 -0.241,-0.119 -0.374,-0.146 -0.133,-0.028 -0.284,-0.041 -0.452,-0.041 -0.258,0 -0.532,0.046 -0.822,0.138 -0.29,0.092 -0.564,0.223 -0.822,0.391 h -0.041 v -0.851 c 0.193,-0.095 0.449,-0.181 0.77,-0.26 0.322,-0.081 0.634,-0.122 0.935,-0.122 0.296,0 0.557,0.027 0.782,0.081 0.225,0.055 0.428,0.141 0.61,0.261 0.195,0.13 0.343,0.287 0.444,0.472 0.1,0.184 0.15,0.4 0.15,0.647 0,0.336 -0.119,0.63 -0.358,0.883 -0.236,0.249 -0.515,0.407 -0.838,0.472 v 0.057 c 0.13,0.021 0.279,0.067 0.447,0.138 0.169,0.068 0.311,0.153 0.428,0.256 z"
         style="font-style:normal;font-variant:normal;font-weight:normal;font-stretch:normal;font-size:8.33333px;font-family:sans-serif;-inkscape-font-specification:'sans-serif, Normal';font-variant-ligatures:normal;font-variant-caps:normal;font-variant-numeric:normal;font-variant-east-asian:normal"
         id="path1176" />
    </g>
  </g>
</svg>
