<?xml version="1.0" encoding="UTF-8" standalone="no"?>
<svg
   xmlns:dc="http://purl.org/dc/elements/1.1/"
   xmlns:cc="http://creativecommons.org/ns#"
   xmlns:rdf="http://www.w3.org/1999/02/22-rdf-syntax-ns#"
   xmlns:svg="http://www.w3.org/2000/svg"
   xmlns="http://www.w3.org/2000/svg"
   xmlns:sodipodi="http://sodipodi.sourceforge.net/DTD/sodipodi-0.dtd"
   xmlns:inkscape="http://www.inkscape.org/namespaces/inkscape"
   width="222.65865mm"
   height="80.195641mm"
   viewBox="0 0 222.65866 80.195642"
   version="1.1"
   id="svg8"
   inkscape:version="1.0 (4035a4f, 2020-05-01)"
   sodipodi:docname="generating_random.svg">
  <defs
     id="defs2">
    <rect
       id="rect1937"
       height="15.348517"
       width="51.948827"
       y="27.861547"
       x="31.687248" />
    <marker
       inkscape:isstock="true"
       style="overflow:visible;"
       id="marker2286"
       refX="0.0"
       refY="0.0"
       orient="auto"
       inkscape:stockid="Arrow2Mend">
      <path
         transform="scale(0.6) rotate(180) translate(0,0)"
         d="M 8.7185878,4.0337352 L -2.2072895,0.016013256 L 8.7185884,-4.0017078 C 6.9730900,-1.6296469 6.9831476,1.6157441 8.7185878,4.0337352 z "
         style="fill-rule:evenodd;stroke-width:0.625;stroke-linejoin:round;stroke:#000000;stroke-opacity:1;fill:#000000;fill-opacity:1"
         id="path2284" />
    </marker>
    <marker
       inkscape:isstock="true"
       style="overflow:visible;"
       id="marker2276"
       refX="0.0"
       refY="0.0"
       orient="auto"
       inkscape:stockid="Arrow2Mend">
      <path
         transform="scale(0.6) rotate(180) translate(0,0)"
         d="M 8.7185878,4.0337352 L -2.2072895,0.016013256 L 8.7185884,-4.0017078 C 6.9730900,-1.6296469 6.9831476,1.6157441 8.7185878,4.0337352 z "
         style="fill-rule:evenodd;stroke-width:0.625;stroke-linejoin:round;stroke:#000000;stroke-opacity:1;fill:#000000;fill-opacity:1"
         id="path2274" />
    </marker>
    <marker
       inkscape:isstock="true"
       style="overflow:visible"
       id="marker1516"
       refX="0"
       refY="0"
       orient="auto"
       inkscape:stockid="Arrow2Lend">
      <path
         transform="matrix(-1.1,0,0,-1.1,-1.1,0)"
         d="M 8.7185878,4.0337352 -2.2072895,0.01601326 8.7185884,-4.0017078 c -1.7454984,2.3720609 -1.7354408,5.6174519 -6e-7,8.035443 z"
         style="fill:#000000;fill-opacity:1;fill-rule:evenodd;stroke:#000000;stroke-width:0.625;stroke-linejoin:round;stroke-opacity:1"
         id="path1514" />
    </marker>
    <inkscape:path-effect
       only_selected="false"
       apply_with_weight="true"
       apply_no_weight="true"
       helper_size="0"
       steps="2"
       weight="33.333333"
       lpeversion="1"
       is_visible="true"
       id="path-effect1504"
       effect="bspline" />
    <marker
       inkscape:isstock="true"
       style="overflow:visible"
       id="Arrow1Mend"
       refX="0"
       refY="0"
       orient="auto"
       inkscape:stockid="Arrow1Mend">
      <path
         transform="matrix(-0.4,0,0,-0.4,-4,0)"
         style="fill:#000000;fill-opacity:1;fill-rule:evenodd;stroke:#000000;stroke-width:1pt;stroke-opacity:1"
         d="M 0,0 5,-5 -12.5,0 5,5 Z"
         id="path1160" />
    </marker>
    <marker
       inkscape:isstock="true"
       style="overflow:visible"
       id="marker1414"
       refX="0"
       refY="0"
       orient="auto"
       inkscape:stockid="Arrow2Lend">
      <path
         transform="matrix(-1.1,0,0,-1.1,-1.1,0)"
         d="M 8.7185878,4.0337352 -2.2072895,0.01601326 8.7185884,-4.0017078 c -1.7454984,2.3720609 -1.7354408,5.6174519 -6e-7,8.035443 z"
         style="fill:#000000;fill-opacity:1;fill-rule:evenodd;stroke:#000000;stroke-width:0.625;stroke-linejoin:round;stroke-opacity:1"
         id="path1172" />
    </marker>
    <rect
       x="7.3705359"
       y="109.23512"
       width="24.379463"
       height="13.607143"
       id="rect3122" />
    <marker
       inkscape:stockid="Arrow2Lend"
       orient="auto"
       refY="0"
       refX="0"
       id="marker3094"
       style="overflow:visible"
       inkscape:isstock="true">
      <path
         id="path3092"
         style="fill:#000000;fill-opacity:1;fill-rule:evenodd;stroke:#000000;stroke-width:0.625;stroke-linejoin:round;stroke-opacity:1"
         d="M 8.7185878,4.0337352 -2.2072895,0.01601326 8.7185884,-4.0017078 c -1.7454984,2.3720609 -1.7354408,5.6174519 -6e-7,8.035443 z"
         transform="matrix(-1.1,0,0,-1.1,-1.1,0)" />
    </marker>
    <rect
       x="52.72768"
       y="120.00744"
       width="55.940475"
       height="13.796131"
       id="rect3078" />
    <rect
       x="65.76786"
       y="110.74702"
       width="33.828869"
       height="18.331844"
       id="rect3070" />
    <marker
       inkscape:stockid="Arrow2Lend"
       orient="auto"
       refY="0"
       refX="0"
       id="Arrow2Lend"
       style="overflow:visible"
       inkscape:isstock="true">
      <path
         id="path2793"
         style="fill:#000000;fill-opacity:1;fill-rule:evenodd;stroke:#000000;stroke-width:0.625;stroke-linejoin:round;stroke-opacity:1"
         d="M 8.7185878,4.0337352 -2.2072895,0.01601326 8.7185884,-4.0017078 c -1.7454984,2.3720609 -1.7354408,5.6174519 -6e-7,8.035443 z"
         transform="matrix(-1.1,0,0,-1.1,-1.1,0)" />
    </marker>
    <marker
       inkscape:stockid="Arrow1Lstart"
       orient="auto"
       refY="0"
       refX="0"
       id="Arrow1Lstart"
       style="overflow:visible"
       inkscape:isstock="true">
      <path
         id="path2772"
         d="M 0,0 5,-5 -12.5,0 5,5 Z"
         style="fill:#000000;fill-opacity:1;fill-rule:evenodd;stroke:#000000;stroke-width:1pt;stroke-opacity:1"
         transform="matrix(0.8,0,0,0.8,10,0)" />
    </marker>
    <inkscape:path-effect
       effect="spiro"
       id="path-effect2770"
       is_visible="true"
       lpeversion="1" />
    <inkscape:path-effect
       effect="skeletal"
       id="path-effect853"
       is_visible="true"
       lpeversion="1"
       pattern="M 0,5 C 0,2.24 2.24,0 5,0 7.76,0 10,2.24 10,5 10,7.76 7.76,10 5,10 2.24,10 0,7.76 0,5 Z"
       copytype="single_stretched"
       prop_scale="1"
       scale_y_rel="false"
       spacing="0"
       normal_offset="0"
       tang_offset="0"
       prop_units="false"
       vertical_pattern="false"
       hide_knot="false"
       fuse_tolerance="0" />
    <inkscape:path-effect
       effect="skeletal"
       id="path-effect849"
       is_visible="true"
       lpeversion="1"
       pattern="M 0,5 C 0,2.24 2.24,0 5,0 7.76,0 10,2.24 10,5 10,7.76 7.76,10 5,10 2.24,10 0,7.76 0,5 Z"
       copytype="single_stretched"
       prop_scale="1"
       scale_y_rel="false"
       spacing="0"
       normal_offset="0"
       tang_offset="0"
       prop_units="false"
       vertical_pattern="false"
       hide_knot="false"
       fuse_tolerance="0" />
  </defs>
  <sodipodi:namedview
     fit-margin-bottom="0"
     fit-margin-right="0"
     fit-margin-left="0"
     fit-margin-top="0"
     id="base"
     pagecolor="#ffffff"
     bordercolor="#666666"
     borderopacity="1.0"
     inkscape:pageopacity="0.0"
     inkscape:pageshadow="2"
     inkscape:zoom="0.89639495"
     inkscape:cx="337.70917"
     inkscape:cy="10.546628"
     inkscape:document-units="mm"
     inkscape:current-layer="layer1"
     inkscape:document-rotation="0"
     showgrid="false"
     inkscape:window-width="1612"
     inkscape:window-height="1005"
     inkscape:window-x="0"
     inkscape:window-y="23"
     inkscape:window-maximized="0" />
  <metadata
     id="metadata5">
    <rdf:RDF>
      <cc:Work
         rdf:about="">
        <dc:format>image/svg+xml</dc:format>
        <dc:type
           rdf:resource="http://purl.org/dc/dcmitype/StillImage" />
        <dc:title />
      </cc:Work>
    </rdf:RDF>
  </metadata>
  <g
     inkscape:label="Layer 1"
     inkscape:groupmode="layer"
     id="layer1"
     transform="translate(-6.8934894,-56.197271)">
    <g
       id="g1120">
      <path
         d="m 27.8812,104.381 -7.6328,-1.573 -5.6229,5.396 -0.8626,-7.745 -6.86944,-3.6807 7.09964,-3.2138 1.3774,-7.6705 5.2505,5.7591 7.7207,-1.0603 -3.8547,6.7731 z"
         id="path835"
         style="fill:#550000;stroke-width:0.210872;stop-color:#000000" />
      <g
         style="font-style:normal;font-variant:normal;font-weight:normal;font-stretch:normal;font-size:4.23333px;line-height:1.25;font-family:sans-serif;-inkscape-font-specification:'sans-serif, Normal';font-variant-ligatures:normal;font-variant-caps:normal;font-variant-numeric:normal;font-variant-east-asian:normal;white-space:pre;shape-inside:url(#rect3122);fill:#000000;fill-opacity:1;stroke:none"
         id="text3120"
         aria-label="seed">
        <path
           id="path1578"
           d="m 14.7826,112.004 c 0,0.211 -0.0875,0.384 -0.2625,0.519 -0.1736,0.135 -0.4113,0.202 -0.7131,0.202 -0.1709,0 -0.328,-0.02 -0.4713,-0.06 -0.142,-0.041 -0.2612,-0.086 -0.3576,-0.134 v -0.436 h 0.0206 c 0.1227,0.092 0.2591,0.166 0.4093,0.221 0.1502,0.054 0.2942,0.081 0.432,0.081 0.1709,0 0.3046,-0.028 0.401,-0.083 0.0965,-0.055 0.1447,-0.142 0.1447,-0.26 0,-0.091 -0.0261,-0.16 -0.0785,-0.207 -0.0524,-0.047 -0.153,-0.087 -0.3018,-0.12 -0.0551,-0.012 -0.1275,-0.027 -0.217,-0.043 -0.0882,-0.017 -0.1688,-0.035 -0.2419,-0.054 -0.2026,-0.054 -0.3466,-0.132 -0.432,-0.236 -0.0841,-0.104 -0.1261,-0.233 -0.1261,-0.384 0,-0.095 0.0193,-0.185 0.0579,-0.269 0.04,-0.084 0.0999,-0.159 0.1798,-0.225 0.0772,-0.065 0.175,-0.116 0.2935,-0.153 0.1199,-0.039 0.2536,-0.058 0.4011,-0.058 0.1378,0 0.2769,0.017 0.4175,0.052 0.1419,0.033 0.2598,0.073 0.3535,0.122 v 0.415 H 14.671 c -0.0992,-0.073 -0.2198,-0.134 -0.3617,-0.184 -0.142,-0.051 -0.2812,-0.076 -0.4176,-0.076 -0.1419,0 -0.2618,0.027 -0.3597,0.082 -0.0978,0.054 -0.1467,0.135 -0.1467,0.242 0,0.095 0.0296,0.167 0.0889,0.215 0.0578,0.048 0.1516,0.088 0.2811,0.118 0.0716,0.016 0.1516,0.033 0.2398,0.05 0.0895,0.016 0.164,0.031 0.2232,0.045 0.1805,0.041 0.3197,0.112 0.4176,0.213 0.0978,0.102 0.1467,0.237 0.1467,0.405 z" />
        <path
           id="path1580"
           d="m 17.2734,111.555 h -1.7012 c 0,0.142 0.0214,0.266 0.0641,0.373 0.0427,0.104 0.1013,0.19 0.1757,0.258 0.0717,0.066 0.1564,0.116 0.2543,0.149 0.0992,0.033 0.208,0.049 0.3266,0.049 0.1571,0 0.3148,-0.031 0.4733,-0.093 0.1599,-0.063 0.2736,-0.125 0.3411,-0.186 h 0.0206 v 0.424 c -0.1309,0.055 -0.2645,0.101 -0.401,0.139 -0.1364,0.037 -0.2797,0.055 -0.4299,0.055 -0.3831,0 -0.6821,-0.103 -0.8971,-0.31 -0.215,-0.208 -0.3225,-0.503 -0.3225,-0.884 0,-0.378 0.1027,-0.678 0.308,-0.9 0.2067,-0.221 0.4782,-0.332 0.8144,-0.332 0.3115,0 0.5513,0.091 0.7194,0.272 0.1695,0.182 0.2542,0.441 0.2542,0.776 z m -0.3783,-0.297 c -0.0014,-0.204 -0.053,-0.362 -0.155,-0.474 -0.1006,-0.111 -0.2542,-0.167 -0.4609,-0.167 -0.2081,0 -0.3742,0.061 -0.4982,0.184 -0.1226,0.123 -0.1922,0.275 -0.2088,0.457 z" />
        <path
           id="path1582"
           d="M 19.7952,111.555 H 18.094 c 0,0.142 0.0214,0.266 0.0641,0.373 0.0427,0.104 0.1013,0.19 0.1757,0.258 0.0717,0.066 0.1564,0.116 0.2543,0.149 0.0992,0.033 0.2081,0.049 0.3266,0.049 0.1571,0 0.3148,-0.031 0.4733,-0.093 0.1599,-0.063 0.2736,-0.125 0.3411,-0.186 h 0.0207 v 0.424 c -0.131,0.055 -0.2646,0.101 -0.4011,0.139 -0.1364,0.037 -0.2797,0.055 -0.4299,0.055 -0.3831,0 -0.6821,-0.103 -0.8971,-0.31 -0.215,-0.208 -0.3225,-0.503 -0.3225,-0.884 0,-0.378 0.1027,-0.678 0.308,-0.9 0.2067,-0.221 0.4782,-0.332 0.8144,-0.332 0.3115,0 0.5513,0.091 0.7194,0.272 0.1695,0.182 0.2542,0.441 0.2542,0.776 z m -0.3782,-0.297 c -0.0014,-0.204 -0.0531,-0.362 -0.1551,-0.474 -0.1006,-0.111 -0.2542,-0.167 -0.4609,-0.167 -0.2081,0 -0.3742,0.061 -0.4982,0.184 -0.1226,0.123 -0.1922,0.275 -0.2088,0.457 z" />
        <path
           id="path1584"
           d="m 22.2571,112.67 h -0.3886 v -0.242 c -0.1116,0.096 -0.2281,0.171 -0.3493,0.225 -0.1213,0.054 -0.2529,0.081 -0.3949,0.081 -0.2756,0 -0.4947,-0.106 -0.6573,-0.319 -0.1612,-0.212 -0.2418,-0.506 -0.2418,-0.882 0,-0.196 0.0275,-0.37 0.0827,-0.523 0.0565,-0.153 0.1322,-0.283 0.2273,-0.391 0.0937,-0.105 0.2026,-0.185 0.3266,-0.24 0.1254,-0.055 0.255,-0.082 0.3886,-0.082 0.1213,0 0.2288,0.013 0.3225,0.039 0.0937,0.025 0.1922,0.064 0.2956,0.118 v -1.001 h 0.3886 z m -0.3886,-0.569 v -1.325 c -0.1047,-0.047 -0.1985,-0.079 -0.2811,-0.097 -0.0827,-0.018 -0.173,-0.027 -0.2708,-0.027 -0.2178,0 -0.3872,0.076 -0.5085,0.228 -0.1213,0.151 -0.1819,0.366 -0.1819,0.644 0,0.275 0.0468,0.483 0.1405,0.627 0.0937,0.142 0.244,0.213 0.4507,0.213 0.1102,0 0.2218,-0.024 0.3348,-0.073 0.113,-0.049 0.2184,-0.113 0.3163,-0.19 z" />
      </g>
    </g>
    <path
       id="path1112"
       d="M 24.698125,96.994922 43.467262,96.851544"
       style="fill:none;fill-rule:evenodd;stroke:#000000;stroke-width:0.265;stroke-linecap:butt;stroke-linejoin:miter;stroke-miterlimit:4;stroke-dasharray:none;stroke-opacity:1;marker-end:url(#marker1414)" />
    <path
       id="path1114"
       d="m 116.41667,96.352317 16.5617,-0.100164"
       style="fill:none;fill-rule:evenodd;stroke:#000000;stroke-width:0.765;stroke-linecap:butt;stroke-linejoin:miter;stroke-miterlimit:4;stroke-dasharray:none;stroke-opacity:1;marker-end:url(#marker2276)" />
    <g
       id="g1890">
      <path
         d="m 198.37,135.603 -52.715,-0.389 -15.91,-48.9025 42.882,-29.8346 42.413,30.4637 z"
         id="path3170"
         style="fill:#c83737;fill-opacity:1;stroke:#000000;stroke-width:0.458724;stroke-miterlimit:4;stroke-dasharray:none;stroke-opacity:1;stop-color:#000000" />
      <g
         style="font-style:normal;font-variant:normal;font-weight:normal;font-stretch:normal;font-size:8.81944px;line-height:1.25;font-family:sans-serif;-inkscape-font-specification:'sans-serif, Normal';font-variant-ligatures:normal;font-variant-caps:normal;font-variant-numeric:normal;font-variant-east-asian:normal;white-space:pre;shape-inside:url(#rect3078);fill:#000000;fill-opacity:1;stroke:none"
         id="text1043"
         aria-label="distribution">
        <path
           id="path1587"
           style="font-style:normal;font-variant:normal;font-weight:normal;font-stretch:normal;font-size:8.81944px;font-family:sans-serif;-inkscape-font-specification:'sans-serif, Normal';font-variant-ligatures:normal;font-variant-caps:normal;font-variant-numeric:normal;font-variant-east-asian:normal"
           d="m 152.176,130.192 h -0.809 v -0.503 c -0.233,0.201 -0.476,0.357 -0.728,0.469 -0.253,0.112 -0.527,0.168 -0.823,0.168 -0.574,0 -1.03,-0.221 -1.369,-0.663 -0.336,-0.442 -0.504,-1.055 -0.504,-1.839 0,-0.408 0.057,-0.771 0.172,-1.09 0.118,-0.318 0.276,-0.59 0.474,-0.813 0.195,-0.219 0.422,-0.385 0.68,-0.5 0.262,-0.115 0.531,-0.172 0.81,-0.172 0.253,0 0.477,0.027 0.672,0.082 0.195,0.051 0.4,0.133 0.616,0.245 v -2.084 h 0.809 z m -0.809,-1.184 v -2.76 c -0.219,-0.098 -0.414,-0.165 -0.586,-0.203 -0.172,-0.037 -0.36,-0.056 -0.564,-0.056 -0.454,0 -0.807,0.158 -1.06,0.474 -0.252,0.316 -0.379,0.764 -0.379,1.344 0,0.571 0.098,1.006 0.293,1.305 0.195,0.295 0.508,0.443 0.939,0.443 0.23,0 0.462,-0.05 0.698,-0.151 0.235,-0.103 0.455,-0.235 0.659,-0.396 z" />
        <path
           id="path1589"
           style="font-style:normal;font-variant:normal;font-weight:normal;font-stretch:normal;font-size:8.81944px;font-family:sans-serif;-inkscape-font-specification:'sans-serif, Normal';font-variant-ligatures:normal;font-variant-caps:normal;font-variant-numeric:normal;font-variant-east-asian:normal"
           d="m 154.639,124.577 h -0.913 v -0.84 h 0.913 z m -0.051,5.615 h -0.81 v -4.81 h 0.81 z" />
        <path
           id="path1591"
           style="font-style:normal;font-variant:normal;font-weight:normal;font-stretch:normal;font-size:8.81944px;font-family:sans-serif;-inkscape-font-specification:'sans-serif, Normal';font-variant-ligatures:normal;font-variant-caps:normal;font-variant-numeric:normal;font-variant-east-asian:normal"
           d="m 159.635,128.806 c 0,0.439 -0.183,0.799 -0.547,1.081 -0.362,0.281 -0.857,0.422 -1.486,0.422 -0.356,0 -0.683,-0.042 -0.982,-0.125 -0.295,-0.086 -0.544,-0.18 -0.745,-0.28 v -0.909 h 0.043 c 0.256,0.193 0.54,0.346 0.853,0.461 0.313,0.112 0.613,0.168 0.9,0.168 0.356,0 0.635,-0.057 0.836,-0.172 0.2,-0.115 0.301,-0.296 0.301,-0.543 0,-0.189 -0.055,-0.333 -0.164,-0.43 -0.109,-0.098 -0.318,-0.181 -0.628,-0.25 -0.115,-0.026 -0.266,-0.056 -0.453,-0.091 -0.183,-0.034 -0.351,-0.071 -0.503,-0.112 -0.422,-0.112 -0.722,-0.275 -0.9,-0.491 -0.176,-0.218 -0.263,-0.485 -0.263,-0.801 0,-0.198 0.04,-0.384 0.12,-0.559 0.084,-0.175 0.209,-0.332 0.375,-0.47 0.161,-0.135 0.365,-0.241 0.612,-0.318 0.249,-0.081 0.528,-0.121 0.835,-0.121 0.287,0 0.577,0.036 0.87,0.108 0.296,0.069 0.541,0.153 0.736,0.254 v 0.865 h -0.043 c -0.206,-0.152 -0.458,-0.28 -0.753,-0.383 -0.296,-0.106 -0.586,-0.159 -0.87,-0.159 -0.296,0 -0.546,0.057 -0.75,0.172 -0.203,0.112 -0.305,0.28 -0.305,0.504 0,0.198 0.061,0.347 0.185,0.448 0.12,0.1 0.316,0.182 0.586,0.245 0.149,0.035 0.315,0.069 0.499,0.103 0.187,0.035 0.342,0.067 0.465,0.095 0.376,0.086 0.666,0.234 0.87,0.444 0.204,0.212 0.306,0.494 0.306,0.844 z" />
        <path
           id="path1593"
           style="font-style:normal;font-variant:normal;font-weight:normal;font-stretch:normal;font-size:8.81944px;font-family:sans-serif;-inkscape-font-specification:'sans-serif, Normal';font-variant-ligatures:normal;font-variant-caps:normal;font-variant-numeric:normal;font-variant-east-asian:normal"
           d="m 163.295,130.149 c -0.152,0.041 -0.318,0.074 -0.499,0.099 -0.178,0.026 -0.338,0.039 -0.478,0.039 -0.491,0 -0.864,-0.132 -1.12,-0.396 -0.256,-0.264 -0.383,-0.688 -0.383,-1.27 v -2.558 h -0.547 v -0.681 h 0.547 V 124 h 0.809 v 1.382 h 1.671 v 0.681 h -1.671 v 2.192 c 0,0.252 0.006,0.45 0.018,0.594 0.011,0.141 0.051,0.273 0.12,0.396 0.063,0.115 0.149,0.2 0.259,0.254 0.111,0.052 0.281,0.078 0.508,0.078 0.132,0 0.27,-0.019 0.413,-0.056 0.144,-0.041 0.247,-0.074 0.31,-0.099 h 0.043 z" />
        <path
           id="path1595"
           style="font-style:normal;font-variant:normal;font-weight:normal;font-stretch:normal;font-size:8.81944px;font-family:sans-serif;-inkscape-font-specification:'sans-serif, Normal';font-variant-ligatures:normal;font-variant-caps:normal;font-variant-numeric:normal;font-variant-east-asian:normal"
           d="m 167.279,126.265 h -0.043 c -0.121,-0.029 -0.239,-0.049 -0.354,-0.06 -0.112,-0.015 -0.245,-0.022 -0.4,-0.022 -0.25,0 -0.491,0.056 -0.724,0.168 -0.232,0.109 -0.456,0.251 -0.671,0.427 v 3.414 h -0.81 v -4.81 h 0.81 v 0.711 c 0.321,-0.259 0.604,-0.441 0.848,-0.547 0.247,-0.109 0.498,-0.164 0.754,-0.164 0.14,0 0.242,0.005 0.305,0.013 0.064,0.006 0.158,0.019 0.285,0.039 z" />
        <path
           id="path1597"
           style="font-style:normal;font-variant:normal;font-weight:normal;font-stretch:normal;font-size:8.81944px;font-family:sans-serif;-inkscape-font-specification:'sans-serif, Normal';font-variant-ligatures:normal;font-variant-caps:normal;font-variant-numeric:normal;font-variant-east-asian:normal"
           d="m 168.919,124.577 h -0.913 v -0.84 h 0.913 z m -0.051,5.615 h -0.81 v -4.81 h 0.81 z" />
        <path
           id="path1599"
           style="font-style:normal;font-variant:normal;font-weight:normal;font-stretch:normal;font-size:8.81944px;font-family:sans-serif;-inkscape-font-specification:'sans-serif, Normal';font-variant-ligatures:normal;font-variant-caps:normal;font-variant-numeric:normal;font-variant-east-asian:normal"
           d="m 174.711,127.751 c 0,0.402 -0.057,0.763 -0.172,1.085 -0.112,0.321 -0.264,0.591 -0.456,0.81 -0.204,0.226 -0.428,0.397 -0.672,0.512 -0.244,0.112 -0.513,0.168 -0.805,0.168 -0.273,0 -0.511,-0.033 -0.715,-0.099 -0.204,-0.063 -0.405,-0.149 -0.603,-0.258 l -0.052,0.223 h -0.758 v -6.7 h 0.81 v 2.394 c 0.227,-0.186 0.468,-0.339 0.723,-0.456 0.256,-0.121 0.543,-0.181 0.862,-0.181 0.568,0 1.016,0.218 1.343,0.654 0.33,0.437 0.495,1.053 0.495,1.848 z m -0.835,0.021 c 0,-0.574 -0.095,-1.009 -0.284,-1.305 -0.19,-0.298 -0.496,-0.447 -0.918,-0.447 -0.235,0 -0.473,0.051 -0.714,0.155 -0.242,0.1 -0.465,0.231 -0.672,0.391 v 2.757 c 0.229,0.103 0.426,0.175 0.59,0.215 0.166,0.04 0.354,0.06 0.564,0.06 0.448,0 0.798,-0.146 1.051,-0.439 0.255,-0.296 0.383,-0.758 0.383,-1.387 z" />
        <path
           id="path1601"
           style="font-style:normal;font-variant:normal;font-weight:normal;font-stretch:normal;font-size:8.81944px;font-family:sans-serif;-inkscape-font-specification:'sans-serif, Normal';font-variant-ligatures:normal;font-variant-caps:normal;font-variant-numeric:normal;font-variant-east-asian:normal"
           d="m 179.961,130.192 h -0.81 v -0.534 c -0.272,0.216 -0.534,0.381 -0.784,0.496 -0.249,0.115 -0.525,0.172 -0.826,0.172 -0.506,0 -0.899,-0.154 -1.18,-0.461 -0.282,-0.31 -0.422,-0.764 -0.422,-1.361 v -3.122 h 0.809 v 2.739 c 0,0.244 0.012,0.454 0.035,0.629 0.023,0.172 0.072,0.32 0.146,0.443 0.078,0.127 0.178,0.219 0.302,0.276 0.123,0.057 0.302,0.086 0.538,0.086 0.209,0 0.438,-0.054 0.685,-0.164 0.249,-0.109 0.482,-0.248 0.697,-0.417 v -3.592 h 0.81 z" />
        <path
           id="path1603"
           style="font-style:normal;font-variant:normal;font-weight:normal;font-stretch:normal;font-size:8.81944px;font-family:sans-serif;-inkscape-font-specification:'sans-serif, Normal';font-variant-ligatures:normal;font-variant-caps:normal;font-variant-numeric:normal;font-variant-east-asian:normal"
           d="m 184.052,130.149 c -0.152,0.041 -0.319,0.074 -0.5,0.099 -0.178,0.026 -0.337,0.039 -0.478,0.039 -0.491,0 -0.864,-0.132 -1.119,-0.396 -0.256,-0.264 -0.384,-0.688 -0.384,-1.27 v -2.558 h -0.546 v -0.681 h 0.546 V 124 h 0.81 v 1.382 h 1.671 v 0.681 h -1.671 v 2.192 c 0,0.252 0.006,0.45 0.017,0.594 0.012,0.141 0.052,0.273 0.121,0.396 0.063,0.115 0.149,0.2 0.258,0.254 0.112,0.052 0.282,0.078 0.508,0.078 0.132,0 0.27,-0.019 0.414,-0.056 0.143,-0.041 0.247,-0.074 0.31,-0.099 h 0.043 z" />
        <path
           id="path1605"
           style="font-style:normal;font-variant:normal;font-weight:normal;font-stretch:normal;font-size:8.81944px;font-family:sans-serif;-inkscape-font-specification:'sans-serif, Normal';font-variant-ligatures:normal;font-variant-caps:normal;font-variant-numeric:normal;font-variant-east-asian:normal"
           d="m 185.904,124.577 h -0.913 v -0.84 h 0.913 z m -0.052,5.615 h -0.81 v -4.81 h 0.81 z" />
        <path
           id="path1607"
           style="font-style:normal;font-variant:normal;font-weight:normal;font-stretch:normal;font-size:8.81944px;font-family:sans-serif;-inkscape-font-specification:'sans-serif, Normal';font-variant-ligatures:normal;font-variant-caps:normal;font-variant-numeric:normal;font-variant-east-asian:normal"
           d="m 191.562,127.789 c 0,0.784 -0.201,1.403 -0.603,1.857 -0.402,0.453 -0.94,0.68 -1.615,0.68 -0.68,0 -1.221,-0.227 -1.623,-0.68 -0.399,-0.454 -0.599,-1.073 -0.599,-1.857 0,-0.783 0.2,-1.402 0.599,-1.856 0.402,-0.456 0.943,-0.684 1.623,-0.684 0.675,0 1.213,0.228 1.615,0.684 0.402,0.454 0.603,1.073 0.603,1.856 z m -0.835,0 c 0,-0.622 -0.122,-1.085 -0.366,-1.386 -0.244,-0.304 -0.583,-0.457 -1.017,-0.457 -0.439,0 -0.78,0.153 -1.024,0.457 -0.242,0.301 -0.362,0.764 -0.362,1.386 0,0.603 0.122,1.061 0.366,1.374 0.244,0.31 0.584,0.465 1.02,0.465 0.431,0 0.768,-0.153 1.012,-0.46 0.247,-0.311 0.371,-0.77 0.371,-1.379 z" />
        <path
           id="path1609"
           style="font-style:normal;font-variant:normal;font-weight:normal;font-stretch:normal;font-size:8.81944px;font-family:sans-serif;-inkscape-font-specification:'sans-serif, Normal';font-variant-ligatures:normal;font-variant-caps:normal;font-variant-numeric:normal;font-variant-east-asian:normal"
           d="m 196.842,130.192 h -0.81 v -2.738 c 0,-0.221 -0.013,-0.428 -0.039,-0.621 -0.025,-0.195 -0.073,-0.347 -0.142,-0.456 -0.071,-0.121 -0.175,-0.21 -0.31,-0.267 -0.135,-0.06 -0.31,-0.09 -0.525,-0.09 -0.221,0 -0.452,0.054 -0.693,0.163 -0.242,0.109 -0.473,0.249 -0.694,0.418 v 3.591 h -0.809 v -4.81 h 0.809 v 0.534 c 0.253,-0.209 0.514,-0.373 0.784,-0.491 0.27,-0.117 0.547,-0.176 0.831,-0.176 0.52,0 0.916,0.156 1.189,0.469 0.272,0.313 0.409,0.764 0.409,1.352 z" />
      </g>
      <path
         style="fill:none;stroke:#000000;stroke-width:1.265;stroke-linecap:butt;stroke-linejoin:miter;stroke-miterlimit:4;stroke-dasharray:none;stroke-opacity:1"
         d="m 141.07696,105.35467 c 6.74863,0 13.49686,0 18.47111,-4.76561 4.97424,-4.765611 8.17443,-14.296621 11.40959,-14.331228 3.23515,-0.03461 6.50485,9.426634 11.96635,14.261738 5.4615,4.83512 13.11413,5.04382 20.76664,5.25253"
         id="path1502" />
    </g>
    <path
       id="path1506"
       d="m 212.04153,95.677093 17.06836,-0.144938"
       style="display:inline;fill:none;fill-rule:evenodd;stroke:#000000;stroke-width:0.765;stroke-linecap:butt;stroke-linejoin:miter;stroke-miterlimit:4;stroke-dasharray:none;stroke-opacity:1;marker-end:url(#marker2286)" />
    <g
       id="g2054">
      <rect
         y="56.885414"
         x="43.467262"
         height="79.375"
         width="72.949409"
         id="rect3074"
         style="fill:#ffaaaa;fill-opacity:1;stroke:#000000;stroke-width:0.264999;stroke-miterlimit:4;stroke-dasharray:none;stroke-opacity:1;stop-color:#000000" />
      <path
         id="path2768"
         d="m 67.130834,95.378458 c -2.737812,-2.457171 -4.709836,-5.755816 -5.578123,-9.330642 -0.868287,-3.574826 -0.629124,-7.410544 0.676503,-10.849824 1.305627,-3.439279 3.672135,-6.46741 6.693972,-8.565458 3.021837,-2.098049 6.686079,-3.257041 10.364781,-3.27836 3.803684,-0.02204 7.605144,1.174585 10.710366,3.371421 3.105222,2.196837 5.499045,5.383156 6.744439,8.977247 1.245395,3.594091 1.336281,7.578404 0.256066,11.225544 -1.080216,3.64714 -3.326258,6.939299 -6.328079,9.275443"
         style="fill:none;stroke:#000000;stroke-width:0.556357;stroke-linecap:butt;stroke-linejoin:miter;stroke-miterlimit:4;stroke-dasharray:none;stroke-opacity:1;marker-end:url(#Arrow2Lend)" />
      <circle
         style="fill:#d35f5f;stroke-width:0.297918px;stop-color:#000000"
         id="path904"
         cx="78.267662"
         cy="103.42373"
         r="13.511905" />
      <g
         style="font-style:normal;font-variant:normal;font-weight:normal;font-stretch:normal;font-size:4.23333px;line-height:1.25;font-family:sans-serif;-inkscape-font-specification:'sans-serif, Normal';font-variant-ligatures:normal;font-variant-caps:normal;font-variant-numeric:normal;font-variant-east-asian:normal;white-space:pre;shape-inside:url(#rect3070);fill:#000000;fill-opacity:1;stroke:none"
         id="text3068"
         aria-label="state">
        <path
           id="path1548"
           style="font-style:normal;font-variant:normal;font-weight:normal;font-stretch:normal;font-size:4.23333px;font-family:sans-serif;-inkscape-font-specification:'sans-serif, Normal';font-variant-ligatures:normal;font-variant-caps:normal;font-variant-numeric:normal;font-variant-east-asian:normal"
           d="m 74.981,104.212 c 0,0.211 -0.0875,0.384 -0.2625,0.519 -0.1736,0.135 -0.4113,0.203 -0.7131,0.203 -0.1709,0 -0.328,-0.02 -0.4713,-0.06 -0.1419,-0.042 -0.2611,-0.086 -0.3576,-0.135 v -0.436 h 0.0207 c 0.1226,0.093 0.259,0.166 0.4093,0.221 0.1502,0.054 0.2942,0.081 0.432,0.081 0.1708,0 0.3045,-0.028 0.401,-0.083 0.0964,-0.055 0.1447,-0.142 0.1447,-0.26 0,-0.091 -0.0262,-0.16 -0.0786,-0.207 -0.0523,-0.047 -0.1529,-0.087 -0.3018,-0.12 -0.0551,-0.012 -0.1274,-0.027 -0.217,-0.043 -0.0882,-0.017 -0.1688,-0.035 -0.2419,-0.054 -0.2025,-0.054 -0.3465,-0.132 -0.432,-0.236 -0.084,-0.104 -0.1261,-0.232 -0.1261,-0.384 0,-0.095 0.0193,-0.185 0.0579,-0.269 0.04,-0.084 0.0999,-0.159 0.1799,-0.225 0.0771,-0.065 0.175,-0.116 0.2935,-0.153 0.1199,-0.039 0.2535,-0.058 0.401,-0.058 0.1378,0 0.277,0.017 0.4175,0.052 0.142,0.033 0.2598,0.074 0.3535,0.122 v 0.415 h -0.0207 c -0.0992,-0.073 -0.2198,-0.134 -0.3617,-0.184 -0.142,-0.051 -0.2811,-0.076 -0.4176,-0.076 -0.1419,0 -0.2618,0.027 -0.3596,0.082 -0.0979,0.054 -0.1468,0.135 -0.1468,0.242 0,0.095 0.0296,0.167 0.0889,0.215 0.0579,0.049 0.1516,0.088 0.2811,0.118 0.0717,0.017 0.1516,0.033 0.2398,0.05 0.0896,0.016 0.164,0.031 0.2232,0.045 0.1806,0.042 0.3197,0.113 0.4176,0.213 0.0978,0.102 0.1467,0.237 0.1467,0.405 z" />
        <path
           id="path1550"
           style="font-style:normal;font-variant:normal;font-weight:normal;font-stretch:normal;font-size:4.23333px;font-family:sans-serif;-inkscape-font-specification:'sans-serif, Normal';font-variant-ligatures:normal;font-variant-caps:normal;font-variant-numeric:normal;font-variant-east-asian:normal"
           d="m 76.738,104.857 c -0.073,0.019 -0.1529,0.035 -0.2397,0.048 -0.0855,0.012 -0.162,0.018 -0.2295,0.018 -0.2356,0 -0.4148,-0.063 -0.5374,-0.19 -0.1227,-0.127 -0.184,-0.33 -0.184,-0.61 v -1.227 h -0.2625 v -0.327 h 0.2625 v -0.664 h 0.3886 v 0.664 h 0.802 v 0.327 h -0.802 v 1.052 c 0,0.121 0.0028,0.216 0.0083,0.285 0.0056,0.067 0.0248,0.131 0.0579,0.19 0.0303,0.055 0.0717,0.096 0.124,0.122 0.0538,0.025 0.1351,0.037 0.2439,0.037 0.0634,0 0.1296,-0.009 0.1985,-0.027 0.0689,-0.019 0.1185,-0.035 0.1488,-0.047 h 0.0207 z" />
        <path
           id="path1552"
           style="font-style:normal;font-variant:normal;font-weight:normal;font-stretch:normal;font-size:4.23333px;font-family:sans-serif;-inkscape-font-specification:'sans-serif, Normal';font-variant-ligatures:normal;font-variant-caps:normal;font-variant-numeric:normal;font-variant-east-asian:normal"
           d="M 79.0035,104.878 H 78.617 v -0.246 c -0.0345,0.023 -0.0813,0.056 -0.1406,0.099 -0.0578,0.041 -0.1143,0.075 -0.1695,0.099 -0.0647,0.032 -0.1391,0.058 -0.2232,0.079 -0.0841,0.022 -0.1826,0.033 -0.2956,0.033 -0.2081,0 -0.3845,-0.069 -0.5292,-0.207 -0.1447,-0.138 -0.217,-0.313 -0.217,-0.527 0,-0.175 0.0372,-0.316 0.1116,-0.424 0.0758,-0.108 0.1833,-0.194 0.3225,-0.256 0.1405,-0.062 0.3093,-0.104 0.5064,-0.126 0.1971,-0.022 0.4086,-0.039 0.6346,-0.05 v -0.06 c 0,-0.088 -0.0159,-0.161 -0.0475,-0.219 -0.0304,-0.058 -0.0745,-0.103 -0.1323,-0.136 -0.0552,-0.032 -0.1213,-0.053 -0.1985,-0.064 -0.0771,-0.011 -0.1578,-0.017 -0.2418,-0.017 -0.102,0 -0.2157,0.014 -0.3411,0.042 -0.1254,0.026 -0.2549,0.064 -0.3886,0.115 h -0.0207 v -0.394 c 0.0758,-0.021 0.1854,-0.044 0.3287,-0.069 0.1433,-0.024 0.2846,-0.037 0.4237,-0.037 0.1627,0 0.3039,0.014 0.4238,0.041 0.1213,0.027 0.226,0.072 0.3142,0.137 0.0868,0.063 0.1529,0.145 0.1984,0.246 0.0455,0.1 0.0682,0.225 0.0682,0.374 z m -0.3865,-0.569 v -0.642 c -0.1185,0.006 -0.2584,0.017 -0.4196,0.031 -0.1599,0.013 -0.2866,0.033 -0.3804,0.06 -0.1116,0.031 -0.2018,0.081 -0.2707,0.148 -0.0689,0.066 -0.1034,0.158 -0.1034,0.275 0,0.133 0.04,0.232 0.1199,0.3 0.0799,0.066 0.2019,0.099 0.3659,0.099 0.1364,0 0.2611,-0.026 0.3741,-0.078 0.113,-0.054 0.2177,-0.118 0.3142,-0.193 z" />
        <path
           id="path1554"
           style="font-style:normal;font-variant:normal;font-weight:normal;font-stretch:normal;font-size:4.23333px;font-family:sans-serif;-inkscape-font-specification:'sans-serif, Normal';font-variant-ligatures:normal;font-variant-caps:normal;font-variant-numeric:normal;font-variant-east-asian:normal"
           d="m 80.9548,104.857 c -0.073,0.019 -0.1529,0.035 -0.2397,0.048 -0.0855,0.012 -0.162,0.018 -0.2295,0.018 -0.2356,0 -0.4148,-0.063 -0.5374,-0.19 -0.1227,-0.127 -0.184,-0.33 -0.184,-0.61 v -1.227 h -0.2625 v -0.327 h 0.2625 v -0.664 h 0.3886 v 0.664 h 0.802 v 0.327 h -0.802 v 1.052 c 0,0.121 0.0028,0.216 0.0083,0.285 0.0056,0.067 0.0248,0.131 0.0579,0.19 0.0303,0.055 0.0717,0.096 0.124,0.122 0.0538,0.025 0.1351,0.037 0.2439,0.037 0.0634,0 0.1296,-0.009 0.1985,-0.027 0.0689,-0.019 0.1185,-0.035 0.1488,-0.047 h 0.0207 z" />
        <path
           id="path1556"
           style="font-style:normal;font-variant:normal;font-weight:normal;font-stretch:normal;font-size:4.23333px;font-family:sans-serif;-inkscape-font-specification:'sans-serif, Normal';font-variant-ligatures:normal;font-variant-caps:normal;font-variant-numeric:normal;font-variant-east-asian:normal"
           d="m 83.3588,103.764 h -1.7012 c 0,0.142 0.0214,0.266 0.0641,0.372 0.0427,0.105 0.1013,0.191 0.1757,0.258 0.0717,0.066 0.1564,0.116 0.2543,0.149 0.0992,0.033 0.208,0.05 0.3266,0.05 0.1571,0 0.3148,-0.031 0.4733,-0.093 0.1599,-0.064 0.2736,-0.126 0.3411,-0.186 h 0.0206 v 0.423 c -0.1309,0.055 -0.2645,0.102 -0.401,0.139 -0.1364,0.037 -0.2797,0.056 -0.4299,0.056 -0.3831,0 -0.6821,-0.104 -0.8971,-0.31 -0.215,-0.209 -0.3225,-0.503 -0.3225,-0.885 0,-0.378 0.1027,-0.677 0.308,-0.899 0.2067,-0.222 0.4782,-0.333 0.8144,-0.333 0.3115,0 0.5513,0.091 0.7194,0.273 0.1695,0.182 0.2542,0.44 0.2542,0.775 z m -0.3783,-0.298 c -0.0014,-0.204 -0.053,-0.362 -0.155,-0.473 -0.1006,-0.112 -0.2542,-0.168 -0.4609,-0.168 -0.2081,0 -0.3742,0.062 -0.4982,0.184 -0.1226,0.123 -0.1922,0.275 -0.2088,0.457 z" />
      </g>
      <g
         aria-label="engine"
         id="text1935"
         style="font-style:normal;font-weight:normal;font-size:10.5833px;line-height:1.25;font-family:sans-serif;white-space:pre;shape-inside:url(#rect1937);fill:#000000;fill-opacity:1;stroke:none">
        <path
           d="m 67.9584,127.035 h -4.2529 c 0,0.355 0.0534,0.665 0.1602,0.931 0.1068,0.261 0.2532,0.477 0.4392,0.645 0.1792,0.166 0.391,0.29 0.6356,0.373 0.2481,0.082 0.5203,0.124 0.8165,0.124 0.3928,0 0.7872,-0.078 1.1834,-0.233 0.3996,-0.158 0.6839,-0.313 0.8527,-0.465 h 0.0517 v 1.059 c -0.3273,0.138 -0.6615,0.254 -1.0026,0.347 -0.341,0.093 -0.6993,0.139 -1.0748,0.139 -0.9578,0 -1.7053,-0.258 -2.2428,-0.775 -0.5374,-0.52 -0.8061,-1.258 -0.8061,-2.212 0,-0.944 0.2566,-1.693 0.7699,-2.248 0.5168,-0.554 1.1955,-0.832 2.0361,-0.832 0.7786,0 1.378,0.228 1.7983,0.682 0.4238,0.455 0.6356,1.101 0.6356,1.938 z m -0.9456,-0.744 c -0.0035,-0.51 -0.1327,-0.904 -0.3876,-1.183 -0.2515,-0.279 -0.6356,-0.419 -1.1524,-0.419 -0.5202,0 -0.9353,0.154 -1.2454,0.46 -0.3066,0.307 -0.4806,0.687 -0.5219,1.142 z"
           id="path1941" />
        <path
           d="m 74.2578,129.821 h -0.9715 v -3.287 c 0,-0.265 -0.0155,-0.513 -0.0465,-0.744 -0.0311,-0.234 -0.0879,-0.417 -0.1706,-0.548 -0.0861,-0.145 -0.2101,-0.251 -0.372,-0.32 -0.162,-0.073 -0.3721,-0.109 -0.6305,-0.109 -0.2653,0 -0.5426,0.066 -0.832,0.197 -0.2894,0.131 -0.5667,0.298 -0.832,0.501 v 4.31 h -0.9715 v -5.773 h 0.9715 v 0.641 c 0.3032,-0.251 0.6167,-0.448 0.9405,-0.589 0.3239,-0.141 0.6563,-0.212 0.9974,-0.212 0.6235,0 1.099,0.188 1.4263,0.564 0.3272,0.375 0.4909,0.916 0.4909,1.622 z"
           id="path1943" />
        <path
           d="m 80.8103,129.164 c 0,0.979 -0.2222,1.697 -0.6666,2.155 -0.4444,0.459 -1.1283,0.688 -2.0515,0.688 -0.3067,0 -0.6064,-0.023 -0.8992,-0.068 -0.2894,-0.041 -0.5753,-0.101 -0.8578,-0.18 v -0.993 h 0.0516 c 0.1585,0.062 0.41,0.138 0.7545,0.228 0.3445,0.093 0.689,0.139 1.0335,0.139 0.3308,0 0.6047,-0.039 0.8217,-0.119 0.217,-0.079 0.3858,-0.189 0.5064,-0.33 0.1206,-0.135 0.2067,-0.297 0.2584,-0.486 0.0517,-0.19 0.0775,-0.401 0.0775,-0.636 v -0.527 c -0.2928,0.234 -0.5736,0.41 -0.8423,0.527 -0.2653,0.114 -0.6046,0.171 -1.018,0.171 -0.689,0 -1.2368,-0.248 -1.6433,-0.744 -0.4031,-0.5 -0.6046,-1.203 -0.6046,-2.109 0,-0.496 0.0689,-0.923 0.2067,-1.281 0.1412,-0.362 0.3324,-0.674 0.5736,-0.936 0.2239,-0.244 0.4961,-0.434 0.8164,-0.568 0.3204,-0.138 0.6391,-0.207 0.9561,-0.207 0.3341,0 0.6132,0.035 0.8371,0.104 0.2274,0.065 0.4668,0.167 0.7183,0.304 l 0.062,-0.248 h 0.9095 z m -0.9715,-0.93 v -3.147 c -0.2584,-0.117 -0.4995,-0.2 -0.7235,-0.248 -0.2204,-0.052 -0.4409,-0.077 -0.6614,-0.077 -0.534,0 -0.9543,0.179 -1.2609,0.537 -0.3066,0.358 -0.4599,0.879 -0.4599,1.561 0,0.647 0.1137,1.138 0.341,1.472 0.2274,0.335 0.6046,0.502 1.1317,0.502 0.2825,0 0.565,-0.054 0.8475,-0.161 0.286,-0.11 0.5478,-0.256 0.7855,-0.439 z"
           id="path1945" />
        <path
           d="m 83.7662,123.082 h -1.0955 v -1.008 h 1.0955 z m -0.062,6.739 h -0.9715 v -5.773 h 0.9715 z"
           id="path1947" />
        <path
           d="m 90.4635,129.821 h -0.9716 v -3.287 c 0,-0.265 -0.0155,-0.513 -0.0465,-0.744 -0.031,-0.234 -0.0878,-0.417 -0.1705,-0.548 -0.0861,-0.145 -0.2101,-0.251 -0.3721,-0.32 -0.1619,-0.073 -0.372,-0.109 -0.6304,-0.109 -0.2653,0 -0.5426,0.066 -0.832,0.197 -0.2894,0.131 -0.5667,0.298 -0.832,0.501 v 4.31 h -0.9715 v -5.773 h 0.9715 v 0.641 c 0.3032,-0.251 0.6167,-0.448 0.9405,-0.589 0.3239,-0.141 0.6563,-0.212 0.9974,-0.212 0.6235,0 1.0989,0.188 1.4262,0.564 0.3273,0.375 0.491,0.916 0.491,1.622 z"
           id="path1949" />
        <path
           d="m 97.1659,127.035 h -4.253 c 0,0.355 0.0534,0.665 0.1602,0.931 0.1068,0.261 0.2532,0.477 0.4393,0.645 0.1791,0.166 0.391,0.29 0.6356,0.373 0.248,0.082 0.5202,0.124 0.8165,0.124 0.3927,0 0.7872,-0.078 1.1833,-0.233 0.3997,-0.158 0.6839,-0.313 0.8527,-0.465 h 0.0517 v 1.059 c -0.3273,0.138 -0.6615,0.254 -1.0025,0.347 -0.3411,0.093 -0.6994,0.139 -1.0749,0.139 -0.9577,0 -1.7053,-0.258 -2.2428,-0.775 -0.5374,-0.52 -0.8061,-1.258 -0.8061,-2.212 0,-0.944 0.2567,-1.693 0.77,-2.248 0.5167,-0.554 1.1954,-0.832 2.036,-0.832 0.7786,0 1.3781,0.228 1.7984,0.682 0.4237,0.455 0.6356,1.101 0.6356,1.938 z m -0.9457,-0.744 c -0.0035,-0.51 -0.1327,-0.904 -0.3876,-1.183 -0.2515,-0.279 -0.6356,-0.419 -1.1524,-0.419 -0.5202,0 -0.9353,0.154 -1.2454,0.46 -0.3066,0.307 -0.4805,0.687 -0.5219,1.142 z"
           id="path1951" />
      </g>
    </g>
  </g>
</svg>
