<?xml version="1.0" encoding="UTF-8" standalone="no"?>
<svg
   xmlns:dc="http://purl.org/dc/elements/1.1/"
   xmlns:cc="http://creativecommons.org/ns#"
   xmlns:rdf="http://www.w3.org/1999/02/22-rdf-syntax-ns#"
   xmlns:svg="http://www.w3.org/2000/svg"
   xmlns="http://www.w3.org/2000/svg"
   xmlns:xlink="http://www.w3.org/1999/xlink"
   xmlns:sodipodi="http://sodipodi.sourceforge.net/DTD/sodipodi-0.dtd"
   xmlns:inkscape="http://www.inkscape.org/namespaces/inkscape"
   inkscape:version="1.0 (4035a4f, 2020-05-01)"
   sodipodi:docname="lognormal_distribution.svg"
   id="svg7885"
   viewBox="-18 -120 139.50879 126.09081"
   height="364.26236"
   width="403.02539"
   version="1.1">
  <metadata
     id="metadata7889">
    <rdf:RDF>
      <cc:Work
         rdf:about="">
        <dc:format>image/svg+xml</dc:format>
        <dc:type
           rdf:resource="http://purl.org/dc/dcmitype/StillImage" />
        <dc:title>Probability distribution function of log-normal distribution</dc:title>
      </cc:Work>
    </rdf:RDF>
  </metadata>
  <sodipodi:namedview
     inkscape:current-layer="svg7885"
     inkscape:window-maximized="0"
     inkscape:window-y="23"
     inkscape:window-x="0"
     inkscape:cy="195"
     inkscape:cx="170.46983"
     inkscape:zoom="2.0435897"
     showgrid="false"
     id="namedview7887"
     inkscape:window-height="1005"
     inkscape:window-width="1680"
     inkscape:pageshadow="2"
     inkscape:pageopacity="0"
     guidetolerance="10"
     gridtolerance="10"
     objecttolerance="10"
     borderopacity="1"
     bordercolor="#666666"
     pagecolor="#ffffff" />
  <title
     id="title7830">Probability distribution function of log-normal distribution</title>
  <defs
     id="defs7835">
    <pattern
       patternTransform="translate(-8.4912109)"
       id="pattern7891"
       xlink:href="#grid"
       inkscape:collect="always" />
    <pattern
       patternUnits="userSpaceOnUse"
       height="15"
       width="20"
       id="grid">
      <path
         id="path7832"
         stroke-width=".25"
         stroke="#555"
         fill="none"
         d="M0,15v-15h20v15h-20" />
    </pattern>
  </defs>
  <rect
     style="fill:url(#pattern7891)"
     x="-8.4912109"
     id="rect7837"
     fill="url(#grid)"
     height="120"
     width="130"
     y="-120" />
  <g
     transform="translate(-8.4912109)"
     id="g7873"
     font-family="'New Century Schoolbook'"
     text-anchor="middle"
     fill="#000000"
     stroke="none"
     font-size="6px">
    <text
       id="text7851"
       y="6"><tspan
         id="tspan7839"
         x="0">0</tspan><tspan
         id="tspan7841"
         x="20">0.5</tspan><tspan
         id="tspan7843"
         x="40">1.0</tspan><tspan
         id="tspan7845"
         x="60">1.5</tspan><tspan
         id="tspan7847"
         x="80">2.0</tspan><tspan
         id="tspan7849"
         x="100">2.5</tspan></text>
    <text
       id="text7853"
       y="0"
       x="-5">0</text>
    <text
       id="text7855"
       y="-28"
       x="-5">0.5</text>
    <text
       id="text7857"
       y="-58"
       x="-5">1.0</text>
    <text
       id="text7859"
       y="-88"
       x="-5">1.5</text>
    <text
       id="text7867"
       y="-13"
       x="95"
       fill="#0000ff">σ=1, μ=0</text>
    <text
       id="text7869"
       y="-25"
       x="75"
       fill="#008000">σ=0.5, μ=0</text>
    <text
       id="text7871"
       y="-100"
       x="40"
       fill="#ff0000">σ=0.25, μ=0</text>
  </g>
  <g
     transform="translate(-8.4912109)"
     id="g7883"
     fill="none">
    <path
       id="path7875"
       stroke-width="0.75"
       stroke="#000000"
       d="M 0,0 H 130 M 0,-120 V 0" />
    <path
       id="path7877"
       stroke="#0000ff"
       d="m 0.4,0 q 3,-13 6,-28 3,-10 5.6,-11 3,-1 6,0 3,2 6,4 3,2 6,5 3,2 6,4 3,2 6,3 3,2 6,3 3,2 6,3 3,1 6,2 3,1 6,2 3,1 6,2 3,1 6,1.2 3,0.6 6,1.2 3,0.5 6,1 3,0.4 6,0.8 3,0.4 4,0.8 10,0.3 10,0.6 10,0.8 10,1" />
    <path
       id="path7879"
       stroke="#008000"
       d="m 0.4,0 q 3,0.17 6,-0.36 3,-0.6 5.6,-9.44 3,-9.2 6,-21.2 3,-11 6,-17 3,-6 6,-6 3,-1 6,2 3,3 6,7 3,4 6,8 3,4 6,8 3,3 6,6 3,3 6,6 3,2 6,4 3,2 6,3 3,1.4 6,2.5 3,1 6,1.8 3,0.8 6,1.4 3,0.6 4,1.1 10,0.4 10,0.7 10,0.9 10,1.1" />
    <path
       id="path7881"
       stroke="#ff0000"
       d="m 0,0 h 8 q 2,0 5,0 2,0.17 4,-0.75 2,-0.55 5,-8.45 2,-8.8 4,-26.8 3,-20 5,-37 2,-18 5,-24 2,-3 4,2 2,6 5,18 2,11 4,23 3,11 5,19 2,9 5,15 2,5 4,9 2,3 5,4.9 2,1.9 4,2.9 3,1.1 5,1.6 2,0.5 5,0.8 2,0.27 4,0.4 2,0.14 5,0.2 2,0.07 4,0.1 3,0.038 5,0.1 h 20" />
  </g>
</svg>
