<?xml version="1.0" encoding="UTF-8" standalone="no"?>
<svg
   xmlns:dc="http://purl.org/dc/elements/1.1/"
   xmlns:cc="http://creativecommons.org/ns#"
   xmlns:rdf="http://www.w3.org/1999/02/22-rdf-syntax-ns#"
   xmlns:svg="http://www.w3.org/2000/svg"
   xmlns="http://www.w3.org/2000/svg"
   xmlns:sodipodi="http://sodipodi.sourceforge.net/DTD/sodipodi-0.dtd"
   xmlns:inkscape="http://www.inkscape.org/namespaces/inkscape"
   inkscape:version="1.0 (4035a4f, 2020-05-01)"
   sodipodi:docname="negative_binomial_distribution.svg"
   id="svg936"
   version="1.1"
   height="308.73203"
   width="509.8367">
  <metadata
     id="metadata942">
    <rdf:RDF>
      <cc:Work
         rdf:about="">
        <dc:format>image/svg+xml</dc:format>
        <dc:type
           rdf:resource="http://purl.org/dc/dcmitype/StillImage" />
      </cc:Work>
    </rdf:RDF>
  </metadata>
  <defs
     id="defs940" />
  <sodipodi:namedview
     inkscape:current-layer="svg936"
     inkscape:window-maximized="0"
     inkscape:window-y="23"
     inkscape:window-x="0"
     inkscape:cy="143.30961"
     inkscape:cx="319.87852"
     inkscape:zoom="0.824"
     showgrid="false"
     id="namedview938"
     inkscape:window-height="1005"
     inkscape:window-width="1680"
     inkscape:pageshadow="2"
     inkscape:pageopacity="0"
     guidetolerance="10"
     gridtolerance="10"
     objecttolerance="10"
     borderopacity="1"
     bordercolor="#666666"
     pagecolor="#ffffff" />
  <!-- SVG plot written using Boost.Plot program (Creator Jacob Voytko) -->
  <!-- Use, modification and distribution of Boost.Plot subject to the -->
  <!-- Boost Software License, Version 1.0.-->
  <!-- (See accompanying file LICENSE_1_0.txt -->
  <!-- or copy at http://www.boost.org/LICENSE_1_0.txt) -->
  <clipPath
     id="plot_window">
    <rect
       id="rect833"
       height="281"
       width="465.20001"
       y="59"
       x="93.599998" />
  </clipPath>
  <g
     style="fill:none"
     transform="translate(-55.121483,-53.04961)"
     stroke-width="2"
     fill="#ffffff"
     stroke="#778899"
     id="plotBackground">
    <rect
       style="fill:none"
       id="rect839"
       height="283"
       width="467.20001"
       y="58"
       x="92.599998" />
  </g>
  <g
     transform="translate(-55.121483,-53.04961)"
     stroke-width="0.5"
     stroke="#c8dcff"
     id="yMinorGrid" />
  <g
     transform="translate(-55.121483,-53.04961)"
     stroke-width="1"
     stroke="#c8dcff"
     id="yMajorGrid" />
  <g
     transform="translate(-55.121483,-53.04961)"
     stroke-width="0.5"
     stroke="#c8dcff"
     id="xMinorGrid" />
  <g
     transform="translate(-55.121483,-53.04961)"
     stroke-width="1"
     stroke="#c8dcff"
     id="xMajorGrid" />
  <g
     transform="translate(-55.121483,-53.04961)"
     stroke-width="1"
     stroke="#000000"
     id="yAxis">
    <line
       id="line846"
       y2="346"
       x2="94.900002"
       y1="58"
       x1="94.900002" />
    <line
       id="line848"
       y2="341"
       x2="92.599998"
       y1="58"
       x1="92.599998" />
  </g>
  <g
     transform="translate(-55.121483,-53.04961)"
     stroke-width="1"
     stroke="#000000"
     id="xAxis">
    <line
       id="line851"
       y2="341"
       x2="559.79999"
       y1="341"
       x1="87.599998" />
    <line
       id="line853"
       y2="341"
       x2="559.79999"
       y1="341"
       x1="87.599998" />
  </g>
  <g
     transform="translate(-55.121483,-53.04961)"
     stroke-width="1"
     stroke="#000000"
     id="yMinorTicks">
    <path
       id="path856"
       fill="none"
       d="m 90.6,322.2 h 2 m -2,-18.7 h 2 m -2,-18.8 h 2 m -2,-18.8 h 2 m -2,-37.5 h 2 m -2,-18.7 h 2 m -2,-18.8 h 2 m -2,-18.8 h 2 m -2,-37.5 h 2 m -2,-18.8 h 2 m -2,-18.72 h 2 m -2,-18.77 h 2 M 90.6,341 h 2" />
  </g>
  <g
     transform="translate(-55.121483,-53.04961)"
     stroke-width="1"
     stroke="#000000"
     id="xMinorTicks" />
  <g
     transform="translate(-55.121483,-53.04961)"
     stroke-width="2"
     stroke="#000000"
     id="yMajorTicks">
    <path
       id="path860"
       fill="none"
       d="m 87.6,341 h 5 m -5,-93.8 h 5 m -5,-93.8 h 5 m -5,-93.85 h 5 M 87.6,341 h 5" />
  </g>
  <g
     transform="translate(-55.121483,-53.04961)"
     stroke-width="2"
     stroke="#000000"
     id="xMajorTicks">
    <path
       id="path863"
       fill="none"
       d="m 94.9,341 v 5 m 229.7,-5 v 5 m 229.7,-5 v 5 M 94.9,341 v 5" />
  </g>
  <g
     transform="translate(-55.121483,-53.04961)"
     id="xTicksValues">
    <text
       id="text866"
       font-family="Verdana"
       font-size="12px"
       text-anchor="middle"
       y="361.60001"
       x="94.900002">0</text>
    <text
       id="text868"
       font-family="Verdana"
       font-size="12px"
       text-anchor="middle"
       y="361.60001"
       x="324.60001">50</text>
    <text
       id="text870"
       font-family="Verdana"
       font-size="12px"
       text-anchor="middle"
       y="361.60001"
       x="554.29999">100</text>
    <text
       id="text872"
       font-family="Verdana"
       font-size="12px"
       text-anchor="middle"
       y="361.60001"
       x="94.900002">0</text>
  </g>
  <g
     transform="translate(-55.121483,-53.04961)"
     id="yTicksValues">
    <text
       id="text875"
       font-family="Verdana"
       font-size="12px"
       text-anchor="end"
       y="343.39999"
       x="81.599998">0</text>
    <text
       id="text877"
       font-family="Verdana"
       font-size="12px"
       text-anchor="end"
       y="249.60001"
       x="81.599998">0.05</text>
    <text
       id="text879"
       font-family="Verdana"
       font-size="12px"
       text-anchor="end"
       y="155.8"
       x="81.599998">0.1</text>
    <text
       id="text881"
       font-family="Verdana"
       font-size="12px"
       text-anchor="end"
       y="61.950001"
       x="81.599998">0.15</text>
    <text
       id="text883"
       font-family="Verdana"
       font-size="12px"
       text-anchor="end"
       y="343.39999"
       x="81.599998">0</text>
  </g>
  <g
     transform="translate(-55.121483,-53.04961)"
     stroke-width="2"
     id="plotLines">
    <g
       id="g894"
       stroke-width="1"
       fill="#00008b"
       stroke="#00008b"
       clip-path="url(#plot_window)">
      <path
         id="path892"
         fill="#00008b"
         d="m 93.17,341 v 0 0 h 1.15 v 0 h 3.45 v 0 h 1.15 v 0 h 3.48 v 0 h 1.1 v 0 h 3.5 v 0 h 1.1 v 0 h 3.4 v 0 h 1.2 v 0 h 3.4 v 0 h 1.2 v 0 h 3.4 v 0 h 1.2 v 0 h 3.4 v 0 h 1.2 v 0 h 3.4 v 0 h 1.2 v 0 h 3.4 v 0 h 1.2 v 0 h 3.4 v 0 h 1.2 v 0 h 3.4 v 0 h 1.2 v 0 h 3.4 v 0 h 1.1 v 0 h 3.5 v 0 h 1.1 v 0 h 3.5 v 0 h 1.1 v 0 h 3.5 v 0 h 1.1 v 0 h 3.5 v -0.1 h 1.1 v 0.1 h 3.5 v -0.1 h 1.1 v 0.1 h 3.5 v -0.2 h 1.1 v 0.2 h 3.5 v -0.3 h 1.1 v 0.3 h 3.4 v -0.4 h 1.2 v 0.4 h 3.4 v -0.5 h 1.2 v 0.5 h 3.4 v -0.7 h 1.2 v 0.7 h 3.4 v -1 h 1.2 v 1 h 3.4 v -1.4 h 1.2 v 1.4 h 3.4 v -1.8 h 1.2 v 1.8 h 3.4 v -2.3 h 1.2 v 2.3 h 3.4 v -3 h 1.2 v 3 h 3.4 v -3.8 h 1.1 v 3.8 h 3.5 v -4.7 h 1.1 v 4.7 h 3.5 v -5.7 h 1.1 v 5.7 h 3.5 v -6.9 h 1.1 v 6.9 h 3.5 v -8.3 h 1.1 v 8.3 h 3.5 v -9.8 h 1.1 v 9.8 h 3.5 v -11.5 h 1.1 V 341 h 3.5 v -13.3 h 1.1 V 341 h 3.4 v -15.2 h 1.2 V 341 h 3.4 v -17.3 h 1.2 V 341 h 3.4 v -19.4 h 1.2 V 341 h 3.4 v -21.7 h 1.2 V 341 h 3.4 v -24 h 1.2 v 24 h 3.4 v -26.3 h 1.2 V 341 h 3.4 v -28.7 h 1.2 V 341 h 3.4 v -31 h 1.1 v 31 h 3.5 v -33.3 h 1.1 V 341 h 3.5 V 305.5 H 301 V 341 h 3.5 v -37.6 h 1.1 V 341 h 3.5 v -39.6 h 1.1 V 341 h 3.5 v -41.5 h 1.1 V 341 h 3.5 v -43.2 h 1.1 V 341 h 3.5 V 296.3 H 324 V 341 h 3.4 v -46 h 1.2 v 46 h 3.4 v -47.1 h 1.2 V 341 h 3.4 v -48 h 1.2 v 48 h 3.4 v -48.7 h 1.2 V 341 h 3.4 V 291.9 H 347 V 341 h 3.4 v -49.3 h 1.2 V 341 h 3.4 v -49.3 h 1.2 V 341 h 3.4 v -49.1 h 1.2 V 341 h 3.4 v -48.7 h 1.1 V 341 h 3.5 v -48.1 h 1.1 V 341 h 3.5 v -47.3 h 1.1 V 341 h 3.5 v -46.4 h 1.1 V 341 h 3.5 v -45.3 h 1.1 V 341 h 3.5 v -44 h 1.1 v 44 h 3.5 v -42.7 h 1.1 V 341 h 3.5 v -41.2 h 1.1 V 341 h 3.4 v -39.7 h 1.2 V 341 h 3.4 v -38.1 h 1.2 V 341 h 3.4 v -36.4 h 1.2 V 341 h 3.4 v -34.7 h 1.2 V 341 h 3.4 v -33 h 1.2 v 33 h 3.4 v -31.3 h 1.2 V 341 h 3.4 v -29.6 h 1.2 V 341 h 3.4 v -27.9 h 1.1 V 341 h 3.5 v -26.2 h 1.1 V 341 h 3.5 v -24.6 h 1.1 V 341 h 3.5 v -23 h 1.1 v 23 h 3.5 v -21.4 h 1.1 V 341 h 3.5 v -19.9 h 1.1 V 341 h 3.5 v -18.5 h 1.1 V 341 h 3.5 v -17.1 h 1.1 V 341 h 3.5 V 325.2 H 471 V 341 h 3.4 v -14.6 h 1.2 V 341 h 3.4 v -13.4 h 1.2 V 341 h 3.4 v -12.3 h 1.2 V 341 h 3.4 v -11.3 h 1.2 V 341 h 3.4 V 330.7 H 494 V 341 h 3.4 v -9.4 h 1.2 v 9.4 h 3.4 v -8.5 h 1.2 v 8.5 h 3.4 v -7.8 h 1.1 v 7.8 h 3.5 v -7 h 1.1 v 7 h 3.5 v -6.4 h 1.1 v 6.4 h 3.5 v -5.8 h 1.1 v 5.8 h 3.5 v -5.2 h 1.1 v 5.2 h 3.5 v -4.7 h 1.1 v 4.7 h 3.5 v -4.2 h 1.1 v 4.2 h 3.5 v -3.8 h 1.1 v 3.8 h 3.4 v -3.4 h 1.2 v 3.4 h 3.4 v -3 h 1.2 v 3 h 3.4 v -2.7 h 1.2 v 2.7 0 z" />
    </g>
    <g
       id="g898"
       stroke-width="1"
       fill="#8b0000"
       stroke="#8b0000"
       clip-path="url(#plot_window)">
      <path
         id="path896"
         fill="#8b0000"
         d="m 94.32,341 v 0 0 h 1.15 v 0 h 3.45 v 0 h 1.18 v 0 h 3.4 v -0.1 h 1.2 v 0.1 h 3.4 v -0.3 h 1.2 v 0.3 h 3.4 v -1 h 1.1 v 1 h 3.5 v -2.4 h 1.1 v 2.4 h 3.5 v -5 h 1.1 v 5 h 3.5 v -9.2 h 1.1 v 9.2 h 3.5 v -15.5 h 1.1 V 341 h 3.5 v -24.1 h 1.1 V 341 h 3.5 v -35 h 1.1 v 35 h 3.5 V 293.3 H 146 V 341 h 3.4 v -61.7 h 1.2 V 341 h 3.4 v -75.9 h 1.2 V 341 h 3.4 v -89.4 h 1.2 V 341 h 3.4 V 239.6 h 1.2 V 341 h 3.4 V 230.1 H 169 V 341 h 3.4 V 223.6 h 1.2 V 341 H 177 V 220.4 h 1.2 V 341 h 3.4 V 220.4 h 1.1 V 341 h 3.5 V 223.4 h 1.1 V 341 h 3.5 V 229 h 1.1 v 112 h 3.5 V 236.6 h 1.1 V 341 h 3.5 v -95.3 h 1.1 V 341 h 3.5 v -85.4 h 1.1 V 341 h 3.5 v -75.1 h 1.1 V 341 h 3.5 v -65 h 1.1 v 65 h 3.5 v -55.4 h 1.1 V 341 h 3.4 v -46.5 h 1.2 V 341 h 3.4 v -38.5 h 1.2 V 341 h 3.4 v -31.4 h 1.2 V 341 h 3.4 v -25.3 h 1.2 V 341 h 3.4 v -20.2 h 1.2 V 341 h 3.4 v -15.9 h 1.2 V 341 h 3.4 v -12.4 h 1.2 V 341 h 3.4 v -9.6 h 1.1 v 9.6 h 3.5 v -7.3 h 1.1 v 7.3 h 3.5 v -5.5 h 1.1 v 5.5 h 3.5 v -4.1 h 1.1 v 4.1 h 3.5 v -3.1 h 1.1 v 3.1 h 3.5 v -2.3 h 1.1 v 2.3 h 3.5 v -1.7 h 1.1 v 1.7 h 3.5 v -1.2 h 1.1 v 1.2 h 3.4 v -0.9 h 1.2 v 0.9 h 3.4 v -0.6 h 1.2 v 0.6 h 3.4 v -0.4 h 1.2 v 0.4 h 3.4 v -0.3 h 1.2 v 0.3 h 3.4 v -0.2 h 1.2 v 0.2 h 3.4 v -0.2 h 1.2 v 0.2 h 3.4 v -0.1 h 1.2 v 0.1 h 3.4 v -0.1 h 1.2 v 0.1 h 3.4 v -0.1 h 1.1 v 0.1 h 3.5 v 0 h 1.1 v 0 h 3.5 v 0 h 1.1 v 0 h 3.5 v 0 h 1.1 v 0 h 3.5 v 0 h 1.1 v 0 h 3.5 v 0 h 1.1 v 0 h 3.5 v 0 h 1.1 v 0 h 3.5 v 0 h 1.1 v 0 h 3.4 v 0 h 1.2 v 0 h 3.4 v 0 h 1.2 v 0 h 3.4 v 0 h 1.2 v 0 h 3.4 v 0 h 1.2 v 0 h 3.4 v 0 h 1.2 v 0 h 3.4 v 0 h 1.2 v 0 h 3.4 v 0 h 1.2 v 0 h 3.4 v 0 h 1.1 v 0 h 3.5 v 0 h 1.1 v 0 h 3.5 v 0 h 1.1 v 0 h 3.5 v 0 h 1.1 v 0 h 3.5 v 0 h 1.1 v 0 h 3.5 v 0 h 1.1 v 0 h 3.5 v 0 h 1.1 v 0 h 3.5 v 0 h 1.1 v 0 h 3.4 v 0 h 1.2 v 0 h 3.4 v 0 h 1.2 v 0 h 3.4 v 0 h 1.2 v 0 h 3.4 v 0 h 1.2 v 0 h 3.4 v 0 h 1.2 v 0 h 3.4 v 0 h 1.2 v 0 h 3.4 v 0 h 1.2 v 0 h 3.4 v 0 h 1.2 v 0 h 3.4 v 0 h 1.1 v 0 h 3.5 v 0 h 1.1 v 0 h 3.5 v 0 h 1.1 v 0 h 3.5 v 0 h 1.1 v 0 h 3.5 v 0 h 1.1 v 0 h 3.5 v 0 h 1.1 v 0 h 3.5 v 0 h 1.1 v 0 h 3.5 v 0 h 1.1 v 0 h 3.4 v 0 h 1.2 v 0 h 3.4 v 0 h 1.2 v 0 h 3.4 v 0 h 1.2 v 0 h 3.4 v 0 h 1.2 v 0 h 3.4 v 0 h 1.2 v 0 h 3.4 v 0 h 1.2 v 0 h 3.4 v 0 h 1.2 v 0 h 3.4 v 0 h 1.2 v 0 h 3.4 v 0 h 1.1 v 0 h 3.5 v 0 h 1.1 v 0 h 3.5 v 0 h 1.1 v 0 0 z" />
    </g>
    <g
       id="g902"
       stroke-width="1"
       fill="#006400"
       stroke="#006400"
       clip-path="url(#plot_window)">
      <path
         id="path900"
         fill="#006400"
         d="m 95.47,341 v 0 -6 h 1.15 v 6 h 3.48 v -29.8 h 1.1 V 341 h 3.5 v -78.1 h 1.1 V 341 h 3.5 V 197.8 h 1.1 V 341 h 3.4 V 135.2 H 115 V 341 h 3.4 V 94.02 h 1.2 V 341 H 123 V 83.73 h 1.2 V 341 h 3.4 V 102.1 h 1.2 V 341 h 3.4 V 139.4 h 1.2 V 341 h 3.4 V 184.2 H 138 V 341 h 3.4 V 227.3 h 1.2 V 341 h 3.4 v -77.5 h 1.1 V 341 h 3.5 v -50.1 h 1.1 V 341 h 3.5 v -30.8 h 1.1 V 341 h 3.5 v -18.2 h 1.1 V 341 h 3.5 v -10.3 h 1.1 V 341 h 3.5 v -5.6 h 1.1 v 5.6 h 3.5 v -3 h 1.1 v 3 h 3.5 v -1.5 h 1.1 v 1.5 h 3.4 v -0.8 h 1.2 v 0.8 h 3.4 v -0.4 h 1.2 v 0.4 h 3.4 v -0.2 h 1.2 v 0.2 h 3.4 v -0.1 h 1.2 v 0.1 h 3.4 v 0 h 1.2 v 0 h 3.4 v 0 h 1.2 v 0 h 3.4 v 0 h 1.2 v 0 h 3.4 v 0 h 1.2 v 0 h 3.4 v 0 h 1.1 v 0 h 3.5 v 0 h 1.1 v 0 h 3.5 v 0 h 1.1 v 0 h 3.5 v 0 h 1.1 v 0 h 3.5 v 0 h 1.1 v 0 h 3.5 v 0 h 1.1 v 0 h 3.5 v 0 h 1.1 v 0 h 3.5 v 0 h 1.1 v 0 h 3.4 v 0 h 1.2 v 0 h 3.4 v 0 h 1.2 v 0 h 3.4 v 0 h 1.2 v 0 h 3.4 v 0 h 1.2 v 0 h 3.4 v 0 h 1.2 v 0 h 3.4 v 0 h 1.2 v 0 h 3.4 v 0 h 1.2 v 0 h 3.4 v 0 h 1.2 v 0 h 3.4 v 0 h 1.1 v 0 h 3.5 v 0 h 1.1 v 0 h 3.5 v 0 h 1.1 v 0 h 3.5 v 0 h 1.1 v 0 h 3.5 v 0 h 1.1 v 0 h 3.5 v 0 h 1.1 v 0 h 3.5 v 0 h 1.1 v 0 h 3.5 v 0 h 1.1 v 0 h 3.4 v 0 h 1.2 v 0 h 3.4 v 0 h 1.2 v 0 h 3.4 v 0 h 1.2 v 0 h 3.4 v 0 h 1.2 v 0 h 3.4 v 0 h 1.2 v 0 h 3.4 v 0 h 1.2 v 0 h 3.4 v 0 h 1.2 v 0 h 3.4 v 0 h 1.1 v 0 h 3.5 v 0 h 1.1 v 0 h 3.5 v 0 h 1.1 v 0 h 3.5 v 0 h 1.1 v 0 h 3.5 v 0 h 1.1 v 0 h 3.5 v 0 h 1.1 v 0 h 3.5 v 0 h 1.1 v 0 h 3.5 v 0 h 1.1 v 0 h 3.4 v 0 h 1.2 v 0 h 3.4 v 0 h 1.2 v 0 h 3.4 v 0 h 1.2 v 0 h 3.4 v 0 h 1.2 v 0 h 3.4 v 0 h 1.2 v 0 h 3.4 v 0 h 1.2 v 0 h 3.4 v 0 h 1.2 v 0 h 3.4 v 0 h 1.2 v 0 h 3.4 v 0 h 1.1 v 0 h 3.5 v 0 h 1.1 v 0 h 3.5 v 0 h 1.1 v 0 h 3.5 v 0 h 1.1 v 0 h 3.5 v 0 h 1.1 v 0 h 3.5 v 0 h 1.1 v 0 h 3.5 v 0 h 1.1 v 0 h 3.5 v 0 h 1.1 v 0 h 3.4 v 0 h 1.2 v 0 h 3.4 v 0 h 1.2 v 0 h 3.4 v 0 h 1.2 v 0 h 3.4 v 0 h 1.2 v 0 h 3.4 v 0 h 1.2 v 0 h 3.4 v 0 h 1.2 v 0 h 3.4 v 0 h 1.2 v 0 h 3.4 v 0 h 1.2 v 0 h 3.4 v 0 h 1.1 v 0 h 3.5 v 0 h 1.1 v 0 h 3.5 v 0 h 1.1 v 0 h 3.5 v 0 h 1.1 v 0 h 3.5 v 0 h 1.1 v 0 h 3.5 v 0 h 1.1 v 0 h 3.5 v 0 h 1.1 v 0 h 3.5 v 0 h 1.1 v 0 h 3.4 v 0 h 1.2 v 0 h 3.4 v 0 h 1.2 v 0 h 3.4 v 0 h 1.2 v 0 0 z" />
    </g>
  </g>
  <g
     transform="translate(-55.121483,-53.04961)"
     clip-path="url(#plot_window)"
     id="plotPoints" />
  <rect
     style="fill:none;stroke:#778899;stroke-width:1"
     x="340.28046"
     y="21.940681"
     width="150.2"
     height="105"
     id="rect906" />
  <rect
     style="fill:none;stroke:#778899;stroke-width:1"
     x="340.28046"
     y="21.940681"
     width="150.2"
     height="105"
     id="rect908" />
  <g
     transform="translate(-233.51954,-36.059319)"
     id="legendPoints">
    <g
       id="g913"
       stroke-width="1"
       fill="#ffffff"
       stroke="#00008b">
      <line
         id="line911"
         y2="88"
         x2="603.79999"
         y1="88"
         x1="588.79999" />
    </g>
    <g
       id="g917"
       stroke-width="1"
       fill="#ffffff"
       stroke="#8b0000">
      <line
         id="line915"
         y2="118"
         x2="603.79999"
         y1="118"
         x1="588.79999" />
    </g>
    <g
       id="g921"
       stroke-width="1"
       fill="#ffffff"
       stroke="#006400">
      <line
         id="line919"
         y2="148"
         x2="603.79999"
         y1="148"
         x1="588.79999" />
    </g>
  </g>
  <g
     transform="translate(-233.51954,-36.059319)"
     id="legendText">
    <text
       style="-inkscape-font-specification:'Verdana, Normal';font-family:Verdana;font-weight:normal;font-style:normal;font-stretch:normal;font-variant:normal;font-size:15px;font-variant-ligatures:normal;font-variant-caps:normal;font-variant-numeric:normal;font-variant-east-asian:normal;"
       id="text924"
       font-family="Verdana"
       font-size="15px"
       y="88"
       x="611.29999"><tspan
         id="tspan975"
         sodipodi:role="line">k=20 p=0.25</tspan></text>
    <text
       style="-inkscape-font-specification:'Verdana, Normal';font-family:Verdana;font-weight:normal;font-style:normal;font-stretch:normal;font-variant:normal;font-size:15px;font-variant-ligatures:normal;font-variant-caps:normal;font-variant-numeric:normal;font-variant-east-asian:normal;"
       id="text926"
       font-family="Verdana"
       font-size="15px"
       y="118"
       x="611.29999"><tspan
         id="tspan977"
         sodipodi:role="line">k=20 p=0.5</tspan></text>
    <text
       style="-inkscape-font-specification:'Verdana, Normal';font-family:Verdana;font-weight:normal;font-style:normal;font-stretch:normal;font-variant:normal;font-size:15px;font-variant-ligatures:normal;font-variant-caps:normal;font-variant-numeric:normal;font-variant-east-asian:normal;"
       id="text928"
       font-family="Verdana"
       font-size="15px"
       y="148"
       x="611.29999"><tspan
         id="tspan979"
         sodipodi:role="line">k=20 p=0.75</tspan></text>
  </g>
  <g
     transform="translate(-55.121483,-53.04961)"
     id="plotXValues" />
  <g
     transform="translate(-55.121483,-53.04961)"
     id="plotYValues" />
</svg>
