<?xml version="1.0" encoding="UTF-8" standalone="no"?>
<svg
   xmlns:dc="http://purl.org/dc/elements/1.1/"
   xmlns:cc="http://creativecommons.org/ns#"
   xmlns:rdf="http://www.w3.org/1999/02/22-rdf-syntax-ns#"
   xmlns:svg="http://www.w3.org/2000/svg"
   xmlns="http://www.w3.org/2000/svg"
   xmlns:sodipodi="http://sodipodi.sourceforge.net/DTD/sodipodi-0.dtd"
   xmlns:inkscape="http://www.inkscape.org/namespaces/inkscape"
   width="559.47852"
   height="303.78165"
   version="1.1"
   id="svg2949"
   sodipodi:docname="poisson_distribution.svg"
   inkscape:version="1.0 (4035a4f, 2020-05-01)">
  <metadata
     id="metadata2955">
    <rdf:RDF>
      <cc:Work
         rdf:about="">
        <dc:format>image/svg+xml</dc:format>
        <dc:type
           rdf:resource="http://purl.org/dc/dcmitype/StillImage" />
        <dc:title></dc:title>
      </cc:Work>
    </rdf:RDF>
  </metadata>
  <defs
     id="defs2953" />
  <sodipodi:namedview
     inkscape:document-rotation="0"
     pagecolor="#ffffff"
     bordercolor="#666666"
     borderopacity="1"
     objecttolerance="10"
     gridtolerance="10"
     guidetolerance="10"
     inkscape:pageopacity="0"
     inkscape:pageshadow="2"
     inkscape:window-width="1680"
     inkscape:window-height="1005"
     id="namedview2951"
     showgrid="false"
     inkscape:zoom="1.3946667"
     inkscape:cx="319.87852"
     inkscape:cy="142"
     inkscape:window-x="0"
     inkscape:window-y="23"
     inkscape:window-maximized="0"
     inkscape:current-layer="svg2949" />
  <!-- SVG plot written using Boost.Plot program (Creator Jacob Voytko) -->
  <!-- Use, modification and distribution of Boost.Plot subject to the -->
  <!-- Boost Software License, Version 1.0.-->
  <!-- (See accompanying file LICENSE_1_0.txt -->
  <!-- or copy at http://www.boost.org/LICENSE_1_0.txt) -->
  <clipPath
     id="plot_window">
    <rect
       x="93.599998"
       y="59"
       width="520"
       height="281"
       id="rect2838" />
  </clipPath>
  <g
     style="fill:none"
     id="plotBackground"
     stroke="#778899"
     stroke-width="2"
     transform="translate(-55.121483,-58)"
     fill="#ffffff">
    <rect
       style="fill:none"
       x="92.599998"
       y="58"
       width="522"
       height="283"
       id="rect2844" />
  </g>
  <g
     id="yMinorGrid"
     stroke="#c8dcff"
     stroke-width="0.5"
     transform="translate(-55.121483,-58)" />
  <g
     id="yMajorGrid"
     stroke="#c8dcff"
     stroke-width="1"
     transform="translate(-55.121483,-58)" />
  <g
     id="xMinorGrid"
     stroke="#c8dcff"
     stroke-width="0.5"
     transform="translate(-55.121483,-58)" />
  <g
     id="xMajorGrid"
     stroke="#c8dcff"
     stroke-width="1"
     transform="translate(-55.121483,-58)" />
  <g
     id="yAxis"
     stroke="#000000"
     stroke-width="1"
     transform="translate(-55.121483,-58)">
    <line
       x1="100.7"
       y1="58"
       x2="100.7"
       y2="346"
       id="line2851" />
    <line
       x1="92.599998"
       y1="58"
       x2="92.599998"
       y2="341"
       id="line2853" />
  </g>
  <g
     id="xAxis"
     stroke="#000000"
     stroke-width="1"
     transform="translate(-55.121483,-58)">
    <line
       x1="87.599998"
       y1="341"
       x2="614.59998"
       y2="341"
       id="line2856" />
    <line
       x1="87.599998"
       y1="341"
       x2="614.59998"
       y2="341"
       id="line2858" />
  </g>
  <g
     id="yMinorTicks"
     stroke="#000000"
     stroke-width="1"
     transform="translate(-55.121483,-58)">
    <path
       d="m 90.6,326.3 h 2 m -2,-14.6 h 2 m -2,-14.7 h 2 m -2,-14.6 h 2 m -2,-29.4 h 2 m -2,-14.6 h 2 m -2,-14.7 h 2 m -2,-14.7 h 2 m -2,-29.3 h 2 m -2,-14.6 h 2 m -2,-14.7 h 2 m -2,-14.7 h 2 m -2,-29.3 h 2 m -2,-14.66 h 2 m -2,-14.66 h 2 m -2,-14.66 h 2 M 90.6,341 h 2"
       fill="none"
       id="path2861" />
  </g>
  <g
     id="xMinorTicks"
     stroke="#000000"
     stroke-width="1"
     transform="translate(-55.121483,-58)" />
  <g
     id="yMajorTicks"
     stroke="#000000"
     stroke-width="2"
     transform="translate(-55.121483,-58)">
    <path
       d="m 87.6,341 h 5 m -5,-73.3 h 5 m -5,-73.3 h 5 m -5,-73.3 h 5 m -5,219.9 h 5"
       fill="none"
       id="path2865" />
  </g>
  <g
     id="xMajorTicks"
     stroke="#000000"
     stroke-width="2"
     transform="translate(-55.121483,-58)">
    <path
       d="m 100.7,341 v 5 m 80.5,-5 v 5 m 80.5,-5 v 5 m 80.5,-5 v 5 m 80.5,-5 v 5 m 80.5,-5 v 5 m 80.6,-5 v 5 m -483.1,-5 v 5"
       fill="none"
       id="path2868" />
  </g>
  <g
     id="xTicksValues"
     transform="translate(-55.121483,-58)">
    <text
       x="100.7"
       y="361.60001"
       text-anchor="middle"
       font-size="12px"
       font-family="Verdana"
       id="text2871">0</text>
    <text
       x="181.2"
       y="361.60001"
       text-anchor="middle"
       font-size="12px"
       font-family="Verdana"
       id="text2873">5</text>
    <text
       x="261.70001"
       y="361.60001"
       text-anchor="middle"
       font-size="12px"
       font-family="Verdana"
       id="text2875">10</text>
    <text
       x="342.20001"
       y="361.60001"
       text-anchor="middle"
       font-size="12px"
       font-family="Verdana"
       id="text2877">15</text>
    <text
       x="422.70001"
       y="361.60001"
       text-anchor="middle"
       font-size="12px"
       font-family="Verdana"
       id="text2879">20</text>
    <text
       x="503.20001"
       y="361.60001"
       text-anchor="middle"
       font-size="12px"
       font-family="Verdana"
       id="text2881">25</text>
    <text
       x="583.79999"
       y="361.60001"
       text-anchor="middle"
       font-size="12px"
       font-family="Verdana"
       id="text2883">30</text>
    <text
       x="100.7"
       y="361.60001"
       text-anchor="middle"
       font-size="12px"
       font-family="Verdana"
       id="text2885">0</text>
  </g>
  <g
     id="yTicksValues"
     transform="translate(-55.121483,-58)">
    <text
       x="81.599998"
       y="343.39999"
       text-anchor="end"
       font-size="12px"
       font-family="Verdana"
       id="text2888">0</text>
    <text
       x="81.599998"
       y="270.10001"
       text-anchor="end"
       font-size="12px"
       font-family="Verdana"
       id="text2890">0.05</text>
    <text
       x="81.599998"
       y="196.8"
       text-anchor="end"
       font-size="12px"
       font-family="Verdana"
       id="text2892">0.1</text>
    <text
       x="81.599998"
       y="123.5"
       text-anchor="end"
       font-size="12px"
       font-family="Verdana"
       id="text2894">0.15</text>
    <text
       x="81.599998"
       y="343.39999"
       text-anchor="end"
       font-size="12px"
       font-family="Verdana"
       id="text2896">0</text>
  </g>
  <g
     id="plotLines"
     stroke-width="2"
     transform="translate(-55.121483,-58)">
    <g
       clip-path="url(#plot_window)"
       stroke="#00008b"
       fill="#00008b"
       stroke-width="1"
       id="g2907">
      <path
         d="m 94.61,341 v 0 -9.9 h 4.03 v 9.9 h 12.06 v -49.4 h 4 V 341 h 12.1 V 217.5 h 4 V 341 h 12.1 V 135.2 H 147 V 341 h 12 V 83.73 h 4.1 V 341 h 12 V 83.73 h 4.1 V 341 h 12 V 126.6 h 4.1 V 341 h 12 V 187.9 h 4.1 V 341 h 12 v -95.7 h 4.1 V 341 h 12 v -53.2 h 4.1 V 341 h 12.1 v -26.6 h 4 V 341 h 12.1 v -12.1 h 4 V 341 h 12.1 v -5 h 4 v 5 H 304 v -1.9 h 4 v 1.9 h 12.1 v -0.7 h 4 v 0.7 h 12.1 v -0.2 h 4 v 0.2 h 12.1 v -0.1 h 4 v 0.1 h 12.1 v 0 h 4 v 0 h 12.1 v 0 h 4 v 0 h 12.1 v 0 h 4 v 0 h 12.1 v 0 h 4 v 0 h 12.1 v 0 h 4 v 0 h 12.1 v 0 h 4 v 0 H 465 v 0 h 4 v 0 h 12.1 v 0 h 4 v 0 h 12.1 v 0 h 4 v 0 h 12.1 v 0 h 4 v 0 h 12.1 v 0 h 4 v 0 h 12.1 v 0 h 4 v 0 h 12.1 v 0 h 4.1 v 0 h 12 v 0 h 4.1 v 0 h 12 v 0 h 4.1 v 0 0 z"
         fill="#00008b"
         id="path2905" />
    </g>
    <g
       clip-path="url(#plot_window)"
       stroke="#8b0000"
       fill="#8b0000"
       stroke-width="1"
       id="g2911">
      <path
         d="m 98.64,341 v 0 -0.1 h 4.06 v 0.1 h 12 v -0.7 h 4.1 v 0.7 h 12 v -3.3 h 4.1 V 341 H 147 v -11.1 h 4 V 341 h 12.1 v -27.7 h 4 V 341 h 12.1 v -55.5 h 4 V 341 h 12.1 v -92.5 h 4 V 341 h 12.1 V 208.9 h 4 V 341 h 12.1 V 175.9 h 4 V 341 h 12.1 V 157.6 h 4 V 341 h 12.1 V 157.6 h 4 V 341 h 12.1 V 174.2 h 4 V 341 h 12.1 V 202 h 4 V 341 H 308 V 234.1 h 4 V 341 h 12.1 v -76.4 h 4 V 341 h 12.1 v -50.9 h 4 V 341 h 12.1 v -31.8 h 4 V 341 h 12.1 v -18.7 h 4 V 341 h 12.1 v -10.4 h 4 V 341 h 12.1 v -5.5 h 4 v 5.5 h 12.1 v -2.7 h 4 v 2.7 h 12.1 v -1.3 h 4 v 1.3 h 12.1 v -0.6 h 4.1 v 0.6 h 12 v -0.3 h 4.1 v 0.3 h 12 v -0.1 h 4.1 v 0.1 h 12 v 0 h 4.1 v 0 h 12 v 0 h 4.1 v 0 h 12 v 0 h 4.1 v 0 h 12 v 0 h 4.1 v 0 h 12.1 v 0 h 4 v 0 h 12.1 v 0 h 4 v 0 h 12.1 v 0 h 4 v 0 0 z"
         fill="#8b0000"
         id="path2909" />
    </g>
    <g
       clip-path="url(#plot_window)"
       stroke="#006400"
       fill="#006400"
       stroke-width="1"
       id="g2915">
      <path
         d="m 102.7,341 v 0 0 h 4 v 0 h 12.1 v 0 h 4 v 0 h 12.1 v 0 h 4 v 0 H 151 v 0 h 4 v 0 h 12.1 v 0 h 4 v 0 h 12.1 v -0.1 h 4 v 0.1 h 12.1 v -0.3 h 4 v 0.3 h 12.1 v -0.8 h 4 v 0.8 h 12.1 v -1.9 h 4 v 1.9 h 12.1 v -4.3 h 4 v 4.3 h 12.1 v -8.5 h 4 v 8.5 h 12.1 v -15.5 h 4 V 341 h 12.1 v -25.8 h 4 V 341 H 312 v -39.8 h 4 V 341 h 12.1 v -56.8 h 4 V 341 h 12.1 v -75.7 h 4 V 341 h 12.1 v -94.7 h 4.1 V 341 h 12 V 229.6 h 4.1 V 341 h 12 V 217.3 h 4.1 V 341 h 12 V 210.7 h 4.1 V 341 h 12 V 210.7 h 4.1 V 341 h 12 V 217 h 4.1 V 341 H 457 V 228.2 h 4 V 341 h 12.1 v -98.1 h 4 V 341 h 12.1 v -81.7 h 4 V 341 h 12.1 v -65.4 h 4 V 341 h 12.1 v -50.3 h 4 V 341 h 12.1 v -37.3 h 4 V 341 h 12.1 v -26.6 h 4 V 341 h 12.1 v -18.4 h 4 V 341 h 12.1 v -12.2 h 4 V 341 h 12.1 v -7.9 h 4 v 7.9 0 z"
         fill="#006400"
         id="path2913" />
    </g>
  </g>
  <g
     id="plotPoints"
     clip-path="url(#plot_window)"
     transform="translate(-55.121483,-58)" />
  <g
     style="fill:none"
     id="legendBackground"
     stroke="#778899"
     fill="#ffffff"
     stroke-width="1"
     transform="translate(-178.44844,-44.376673)">
    <rect
       style="fill:none"
       x="628.59998"
       y="58"
       width="95.360001"
       height="105"
       id="rect2919" />
  </g>
  <g
     id="legendPoints"
     transform="translate(-178.44844,-44.376673)">
    <g
       stroke="#00008b"
       fill="#ffffff"
       stroke-width="1"
       id="g2926">
      <line
         x1="643.59998"
         y1="88"
         x2="658.59998"
         y2="88"
         id="line2924" />
    </g>
    <g
       stroke="#8b0000"
       fill="#ffffff"
       stroke-width="1"
       id="g2930">
      <line
         x1="643.59998"
         y1="118"
         x2="658.59998"
         y2="118"
         id="line2928" />
    </g>
    <g
       stroke="#006400"
       fill="#ffffff"
       stroke-width="1"
       id="g2934">
      <line
         x1="643.59998"
         y1="148"
         x2="658.59998"
         y2="148"
         id="line2932" />
    </g>
  </g>
  <g
     id="legendText"
     transform="translate(-178.44844,-44.376673)">
    <text
       x="666.09998"
       y="88"
       font-size="15px"
       font-family="Verdana"
       id="text2937"
       style="-inkscape-font-specification:'Verdana, Normal';font-family:Verdana;font-weight:normal;font-style:normal;font-stretch:normal;font-variant:normal;font-size:15px;font-variant-ligatures:normal;font-variant-caps:normal;font-variant-numeric:normal;font-variant-east-asian:normal;"><tspan
         sodipodi:role="line"
         id="tspan2957">μ=5</tspan></text>
    <text
       x="666.09998"
       y="118"
       font-size="15px"
       font-family="Verdana"
       id="text2939"
       style="-inkscape-font-specification:'Verdana, Normal';font-family:Verdana;font-weight:normal;font-style:normal;font-stretch:normal;font-variant:normal;font-size:15px;font-variant-ligatures:normal;font-variant-caps:normal;font-variant-numeric:normal;font-variant-east-asian:normal;"><tspan
         sodipodi:role="line"
         id="tspan2959">μ=10</tspan></text>
    <text
       x="666.09998"
       y="148"
       font-size="15px"
       font-family="Verdana"
       id="text2941"
       style="-inkscape-font-specification:'Verdana, Normal';font-family:Verdana;font-weight:normal;font-style:normal;font-stretch:normal;font-variant:normal;font-size:15px;font-variant-ligatures:normal;font-variant-caps:normal;font-variant-numeric:normal;font-variant-east-asian:normal;"><tspan
         sodipodi:role="line"
         id="tspan2961">μ=20</tspan></text>
  </g>
  <g
     id="plotXValues"
     transform="translate(-55.121483,-58)" />
  <g
     id="plotYValues"
     transform="translate(-55.121483,-58)" />
</svg>
