<?xml version="1.0" encoding="UTF-8" standalone="no"?>
<svg
   xmlns:dc="http://purl.org/dc/elements/1.1/"
   xmlns:cc="http://creativecommons.org/ns#"
   xmlns:rdf="http://www.w3.org/1999/02/22-rdf-syntax-ns#"
   xmlns:svg="http://www.w3.org/2000/svg"
   xmlns="http://www.w3.org/2000/svg"
   xmlns:sodipodi="http://sodipodi.sourceforge.net/DTD/sodipodi-0.dtd"
   xmlns:inkscape="http://www.inkscape.org/namespaces/inkscape"
   inkscape:version="1.0 (4035a4f, 2020-05-01)"
   sodipodi:docname="exponential_distribution.svg"
   id="svg3369"
   version="1.1"
   height="304.78165"
   width="555.49609">
  <metadata
     id="metadata3375">
    <rdf:RDF>
      <cc:Work
         rdf:about="">
        <dc:format>image/svg+xml</dc:format>
        <dc:type
           rdf:resource="http://purl.org/dc/dcmitype/StillImage" />
      </cc:Work>
    </rdf:RDF>
  </metadata>
  <defs
     id="defs3373" />
  <sodipodi:namedview
     inkscape:current-layer="svg3369"
     inkscape:window-maximized="0"
     inkscape:window-y="23"
     inkscape:window-x="0"
     inkscape:cy="143"
     inkscape:cx="353.48461"
     inkscape:zoom="1.4613333"
     showgrid="false"
     id="namedview3371"
     inkscape:window-height="1005"
     inkscape:window-width="1680"
     inkscape:pageshadow="2"
     inkscape:pageopacity="0"
     guidetolerance="10"
     gridtolerance="10"
     objecttolerance="10"
     borderopacity="1"
     bordercolor="#666666"
     pagecolor="#ffffff" />
  <!-- SVG plot written using Boost.Plot program (Creator Jacob Voytko) -->
  <!-- Use, modification and distribution of Boost.Plot subject to the -->
  <!-- Boost Software License, Version 1.0.-->
  <!-- (See accompanying file LICENSE_1_0.txt -->
  <!-- or copy at http://www.boost.org/LICENSE_1_0.txt) -->
  <clipPath
     id="plot_window">
    <rect
       id="rect3256"
       height="281"
       width="520.59998"
       y="59"
       x="85.199997" />
  </clipPath>
  <g
     style="fill:none"
     transform="translate(-54.362106,-57)"
     stroke-width="2"
     fill="#ffffff"
     stroke="#778899"
     id="plotBackground">
    <rect
       style="fill:none"
       id="rect3262"
       height="283"
       width="522.59998"
       y="58"
       x="84.199997" />
  </g>
  <g
     transform="translate(-54.362106,-57)"
     stroke-width="0.5"
     stroke="#c8dcff"
     id="yMinorGrid" />
  <g
     transform="translate(-54.362106,-57)"
     stroke-width="1"
     stroke="#c8dcff"
     id="yMajorGrid" />
  <g
     transform="translate(-54.362106,-57)"
     stroke-width="0.5"
     stroke="#c8dcff"
     id="xMinorGrid" />
  <g
     transform="translate(-54.362106,-57)"
     stroke-width="1"
     stroke="#c8dcff"
     id="xMajorGrid" />
  <g
     transform="translate(-54.362106,-57)"
     stroke-width="1"
     stroke="#000000"
     id="yAxis">
    <line
       id="line3269"
       y2="346"
       x2="84.199997"
       y1="58"
       x1="84.199997" />
    <line
       id="line3271"
       y2="341"
       x2="84.199997"
       y1="58"
       x1="84.199997" />
  </g>
  <g
     transform="translate(-54.362106,-57)"
     stroke-width="1"
     stroke="#000000"
     id="xAxis">
    <line
       id="line3274"
       y2="341"
       x2="606.79999"
       y1="341"
       x1="79.199997" />
    <line
       id="line3276"
       y2="341"
       x2="606.79999"
       y1="341"
       x1="79.199997" />
  </g>
  <g
     transform="translate(-54.362106,-57)"
     stroke-width="1"
     stroke="#000000"
     id="yMinorTicks">
    <path
       id="path3279"
       fill="none"
       d="m 82.2,327.3 h 2 m -2,-13.6 h 2 m -2,-13.7 h 2 m -2,-13.7 h 2 m -2,-27.3 h 2 m -2,-13.6 h 2 m -2,-13.7 h 2 m -2,-13.7 h 2 m -2,-27.3 h 2 m -2,-13.7 h 2 m -2,-13.6 h 2 m -2,-13.7 h 2 m -2,-27.3 h 2 m -2,-13.7 h 2 m -2,-13.64 h 2 m -2,-13.66 h 2 m -2,259.6 h 2" />
  </g>
  <g
     transform="translate(-54.362106,-57)"
     stroke-width="1"
     stroke="#000000"
     id="xMinorTicks">
    <path
       id="path3282"
       fill="none"
       d="m 101.6,341 v 2 m 17.4,-2 v 2 m 17.4,-2 v 2 m 17.5,-2 v 2 m 34.8,-2 v 2 m 17.4,-2 v 2 m 17.4,-2 v 2 m 17.4,-2 v 2 m 34.9,-2 v 2 m 17.4,-2 v 2 m 17.4,-2 v 2 m 17.4,-2 v 2 m 34.9,-2 v 2 m 17.4,-2 v 2 m 17.4,-2 v 2 m 17.4,-2 v 2 m 34.8,-2 v 2 m 17.4,-2 v 2 m 17.5,-2 v 2 m 17.4,-2 v 2 m 34.8,-2 v 2 m 17.4,-2 v 2 m 17.4,-2 v 2 m 17.5,-2 v 2" />
  </g>
  <g
     transform="translate(-54.362106,-57)"
     stroke-width="2"
     stroke="#000000"
     id="yMajorTicks">
    <path
       id="path3285"
       fill="none"
       d="m 79.2,341 h 5 m -5,-68.3 h 5 m -5,-68.3 h 5 m -5,-68.4 h 5 m -5,-68.27 h 5 M 79.2,341 h 5" />
  </g>
  <g
     transform="translate(-54.362106,-57)"
     stroke-width="2"
     stroke="#000000"
     id="xMajorTicks">
    <path
       id="path3288"
       fill="none"
       d="m 84.2,341 v 5 m 87.1,-5 v 5 m 87.1,-5 v 5 m 87,-5 v 5 m 87.1,-5 v 5 m 87.1,-5 v 5 m 87.1,-5 v 5" />
  </g>
  <g
     transform="translate(-54.362106,-57)"
     id="xTicksValues">
    <text
       id="text3291"
       font-family="Verdana"
       font-size="12px"
       text-anchor="middle"
       y="361.60001"
       x="84.199997">0</text>
    <text
       id="text3293"
       font-family="Verdana"
       font-size="12px"
       text-anchor="middle"
       y="361.60001"
       x="171.3">1</text>
    <text
       id="text3295"
       font-family="Verdana"
       font-size="12px"
       text-anchor="middle"
       y="361.60001"
       x="258.39999">2</text>
    <text
       id="text3297"
       font-family="Verdana"
       font-size="12px"
       text-anchor="middle"
       y="361.60001"
       x="345.39999">3</text>
    <text
       id="text3299"
       font-family="Verdana"
       font-size="12px"
       text-anchor="middle"
       y="361.60001"
       x="432.5">4</text>
    <text
       id="text3301"
       font-family="Verdana"
       font-size="12px"
       text-anchor="middle"
       y="361.60001"
       x="519.59998">5</text>
    <text
       id="text3303"
       font-family="Verdana"
       font-size="12px"
       text-anchor="middle"
       y="361.60001"
       x="606.70001">6</text>
  </g>
  <g
     transform="translate(-54.362106,-57)"
     id="yTicksValues">
    <text
       id="text3306"
       font-family="Verdana"
       font-size="12px"
       text-anchor="end"
       y="343.39999"
       x="73.199997">0</text>
    <text
       id="text3308"
       font-family="Verdana"
       font-size="12px"
       text-anchor="end"
       y="275.10001"
       x="73.199997">0.5</text>
    <text
       id="text3310"
       font-family="Verdana"
       font-size="12px"
       text-anchor="end"
       y="206.8"
       x="73.199997">1</text>
    <text
       id="text3312"
       font-family="Verdana"
       font-size="12px"
       text-anchor="end"
       y="138.39999"
       x="73.199997">1.5</text>
    <text
       id="text3314"
       font-family="Verdana"
       font-size="12px"
       text-anchor="end"
       y="70.129997"
       x="73.199997">2</text>
    <text
       id="text3316"
       font-family="Verdana"
       font-size="12px"
       text-anchor="end"
       y="343.39999"
       x="73.199997">0</text>
  </g>
  <g
     transform="translate(-54.362106,-57)"
     stroke-width="2"
     id="plotLines">
    <g
       id="g3327"
       stroke-width="1"
       stroke="#00008b"
       clip-path="url(#plot_window)">
      <path
         id="path3325"
         fill="none"
         d="m 84.2,272.7 2.61,1 2.62,1 2.61,1 2.61,1 2.62,0.9 2.61,1 2.62,0.9 2.6,0.9 2.6,0.9 2.6,0.9 2.6,0.9 2.7,0.8 2.6,0.9 2.6,0.8 2.6,0.9 2.6,0.8 2.6,0.8 2.6,0.8 2.6,0.7 2.7,0.8 2.6,0.7 2.6,0.8 2.6,0.7 2.6,0.7 2.6,0.8 2.6,0.6 2.7,0.7 2.6,0.7 2.6,0.7 2.6,0.6 2.6,0.7 2.6,0.6 2.6,0.7 2.6,0.6 2.7,0.6 2.6,0.6 2.6,0.6 2.6,0.6 2.6,0.5 2.6,0.6 2.6,0.6 2.6,0.5 2.7,0.6 2.6,0.5 2.6,0.5 2.6,0.5 2.6,0.5 2.6,0.6 2.6,0.4 2.6,0.5 2.7,0.5 2.6,0.5 2.6,0.5 2.6,0.4 2.6,0.5 2.6,0.4 2.6,0.5 2.7,0.4 2.6,0.4 2.6,0.4 2.6,0.4 2.6,0.5 2.6,0.4 2.6,0.3 2.6,0.4 2.7,0.4 2.6,0.4 2.6,0.4 2.6,0.3 2.6,0.4 2.6,0.4 2.6,0.3 2.6,0.4 2.7,0.3 2.6,0.3 2.6,0.4 2.6,0.3 2.6,0.3 2.6,0.3 2.6,0.3 2.7,0.3 2.6,0.3 2.6,0.3 2.6,0.3 2.6,0.3 2.6,0.3 2.6,0.3 2.6,0.3 2.7,0.2 2.6,0.3 2.6,0.3 2.6,0.2 2.6,0.3 2.6,0.2 2.6,0.3 2.6,0.2 2.7,0.3 2.6,0.2 2.6,0.2 2.6,0.3 2.6,0.2 2.6,0.2 2.6,0.2 2.7,0.2 2.6,0.3 2.6,0.2 2.6,0.2 2.6,0.2 2.6,0.2 2.6,0.2 2.6,0.2 2.7,0.2 2.6,0.2 2.6,0.1 2.6,0.2 2.6,0.2 2.6,0.2 2.6,0.2 2.6,0.1 2.7,0.2 2.6,0.2 2.6,0.1 2.6,0.2 2.6,0.2 2.6,0.1 2.6,0.2 2.7,0.1 2.6,0.2 2.6,0.1 2.6,0.2 2.6,0.1 2.6,0.2 2.6,0.1 2.6,0.2 2.7,0.1 2.6,0.1 2.6,0.2 2.6,0.1 2.6,0.1 2.6,0.1 2.6,0.2 2.6,0.1 2.7,0.1 2.6,0.1 2.6,0.1 2.6,0.2 2.6,0.1 2.6,0.1 2.6,0.1 2.7,0.1 2.6,0.1 2.6,0.1 2.6,0.1 2.6,0.1 2.6,0.1 2.6,0.1 2.6,0.1 2.7,0.1 2.6,0.1 2.6,0.1 2.6,0.1 2.6,0.1 2.6,0.1 2.6,0.1 2.6,0.1 h 2.7 l 2.6,0.1 2.6,0.1 2.6,0.1 2.6,0.1 h 2.6 l 2.6,0.1 2.6,0.1 2.7,0.1 2.6,0.1 h 2.6 l 2.6,0.1 2.6,0.1 h 2.6 l 2.6,0.1 2.7,0.1 h 2.6 l 2.6,0.1 2.6,0.1 h 2.6 l 2.6,0.1 2.6,0.1 h 2.6 l 2.7,0.1 2.6,0.1 h 2.6 l 2.6,0.1 h 2.6 l 2.6,0.1 h 2.6 l 2.6,0.1 h 2.7 l 2.6,0.1 h 2.6" />
    </g>
    <g
       id="g3331"
       stroke-width="1"
       stroke="#8b0000"
       clip-path="url(#plot_window)">
      <path
         id="path3329"
         fill="none"
         d="m 84.2,204.4 2.61,4 2.62,3.9 2.61,3.8 2.61,3.7 2.62,3.6 2.61,3.5 2.62,3.4 2.6,3.2 2.6,3.2 2.6,3.1 2.6,3 2.7,2.9 2.6,2.8 2.6,2.7 2.6,2.7 2.6,2.6 2.6,2.5 2.6,2.4 2.6,2.3 2.7,2.3 2.6,2.2 2.6,2.2 2.6,2.1 2.6,2 2.6,2 2.6,1.9 2.7,1.8 2.6,1.8 2.6,1.8 2.6,1.7 2.6,1.6 2.6,1.6 2.6,1.5 2.6,1.5 2.7,1.5 2.6,1.4 2.6,1.4 2.6,1.3 2.6,1.3 2.6,1.3 2.6,1.2 2.6,1.2 2.7,1.1 2.6,1.1 2.6,1.1 2.6,1 2.6,1.1 2.6,0.9 2.6,1 2.6,0.9 2.7,0.9 2.6,0.9 2.6,0.8 2.6,0.9 2.6,0.8 2.6,0.7 2.6,0.8 2.7,0.7 2.6,0.7 2.6,0.7 2.6,0.7 2.6,0.6 2.6,0.7 2.6,0.6 2.6,0.6 2.7,0.5 2.6,0.6 2.6,0.5 2.6,0.6 2.6,0.5 2.6,0.5 2.6,0.5 2.6,0.4 2.7,0.5 2.6,0.4 2.6,0.4 2.6,0.4 2.6,0.4 2.6,0.4 2.6,0.4 2.7,0.4 2.6,0.3 2.6,0.4 2.6,0.3 2.6,0.3 2.6,0.4 2.6,0.3 2.6,0.3 2.7,0.2 2.6,0.3 2.6,0.3 2.6,0.3 2.6,0.2 2.6,0.3 2.6,0.2 2.6,0.2 2.7,0.3 2.6,0.2 2.6,0.2 2.6,0.2 2.6,0.2 2.6,0.2 2.6,0.2 2.7,0.2 2.6,0.1 2.6,0.2 2.6,0.2 2.6,0.2 2.6,0.1 2.6,0.2 2.6,0.1 2.7,0.2 2.6,0.1 2.6,0.1 2.6,0.2 2.6,0.1 2.6,0.1 2.6,0.1 2.6,0.2 2.7,0.1 2.6,0.1 2.6,0.1 2.6,0.1 2.6,0.1 2.6,0.1 2.6,0.1 2.7,0.1 2.6,0.1 2.6,0.1 h 2.6 l 2.6,0.1 2.6,0.1 2.6,0.1 h 2.6 l 2.7,0.1 2.6,0.1 2.6,0.1 h 2.6 l 2.6,0.1 2.6,0.1 h 2.6 l 2.6,0.1 h 2.7 l 2.6,0.1 h 2.6 l 2.6,0.1 h 2.6 l 2.6,0.1 h 2.6 l 2.7,0.1 h 2.6 l 2.6,0.1 h 2.6 l 2.6,0.1 h 2.6 2.6 l 2.6,0.1 h 2.7 2.6 l 2.6,0.1 h 2.6 2.6 l 2.6,0.1 h 2.6 2.6 l 2.7,0.1 h 2.6 2.6 2.6 l 2.6,0.1 h 2.6 2.6 2.6 l 2.7,0.1 h 2.6 2.6 2.6 2.6 l 2.6,0.1 h 2.6 2.7 2.6 2.6 l 2.6,0.1 h 2.6 2.6 2.6 2.6 2.7 2.6 l 2.6,0.1 h 2.6 2.6 2.6 2.6 2.6 2.7 2.6 l 2.6,0.1" />
    </g>
    <g
       id="g3335"
       stroke-width="1"
       stroke="#006400"
       clip-path="url(#plot_window)">
      <path
         id="path3333"
         fill="none"
         d="m 84.2,67.73 2.61,15.92 2.62,14.99 2.61,14.16 2.61,13.3 2.62,12.5 2.61,11.8 2.62,11.1 2.6,10.4 2.6,9.9 2.6,9.2 2.6,8.8 2.7,8.2 2.6,7.8 2.6,7.3 2.6,6.8 2.6,6.5 2.6,6.1 2.6,5.7 2.6,5.4 2.7,5.1 2.6,4.8 2.6,4.5 2.6,4.3 2.6,4 2.6,3.7 2.6,3.6 2.7,3.3 2.6,3.2 2.6,3 2.6,2.7 2.6,2.7 2.6,2.5 2.6,2.3 2.6,2.2 2.7,2.1 2.6,1.9 2.6,1.8 2.6,1.8 2.6,1.6 2.6,1.5 2.6,1.5 2.6,1.3 2.7,1.3 2.6,1.2 2.6,1.1 2.6,1.1 2.6,1 2.6,1 2.6,0.9 2.6,0.8 2.7,0.8 2.6,0.7 2.6,0.7 2.6,0.7 2.6,0.6 2.6,0.6 2.6,0.6 2.7,0.5 2.6,0.5 2.6,0.4 2.6,0.5 2.6,0.4 2.6,0.4 2.6,0.3 2.6,0.4 2.7,0.3 2.6,0.3 2.6,0.3 2.6,0.3 2.6,0.2 2.6,0.2 2.6,0.3 2.6,0.2 2.7,0.2 2.6,0.2 2.6,0.1 2.6,0.2 2.6,0.2 2.6,0.1 2.6,0.2 2.7,0.1 2.6,0.1 2.6,0.1 2.6,0.1 2.6,0.1 2.6,0.1 2.6,0.1 2.6,0.1 2.7,0.1 2.6,0.1 h 2.6 l 2.6,0.1 2.6,0.1 h 2.6 l 2.6,0.1 h 2.6 l 2.7,0.1 h 2.6 l 2.6,0.1 h 2.6 l 2.6,0.1 h 2.6 2.6 l 2.7,0.1 h 2.6 2.6 l 2.6,0.1 h 2.6 2.6 2.6 l 2.6,0.1 h 2.7 2.6 2.6 2.6 2.6 l 2.6,0.1 h 2.6 2.6 2.7 2.6 2.6 2.6 2.6 2.6 l 2.6,0.1 h 2.7 2.6 2.6 2.6 2.6 2.6 2.6 2.6 2.7 2.6 2.6 2.6 2.6 2.6 2.6 2.6 2.7 l 2.6,0.1 h 2.6 2.6 2.6 2.6 2.6 2.7 2.6 2.6 2.6 2.6 2.6 2.6 2.6 2.7 2.6 2.6 2.6 2.6 2.6 2.6 2.6 2.7 2.6 2.6 2.6 2.6 2.6 2.6 2.6 2.7 2.6 2.6 2.6 2.6 2.6 2.6 2.7 2.6 2.6 2.6 2.6 2.6 2.6 2.6 2.7 2.6 2.6 2.6 2.6 2.6 2.6 2.6 2.7 2.6 2.6" />
    </g>
  </g>
  <g
     transform="translate(-54.362106,-57)"
     clip-path="url(#plot_window)"
     id="plotPoints" />
  <g
     style="fill:none"
     transform="translate(-189.85481,-40.576642)"
     stroke-width="1"
     fill="#ffffff"
     stroke="#778899"
     id="legendBackground">
    <rect
       style="fill:none"
       id="rect3339"
       height="105"
       width="103.2"
       y="58"
       x="620.79999" />
    <rect
       style="fill:none"
       id="rect3341"
       height="105"
       width="103.2"
       y="58"
       x="620.79999" />
  </g>
  <g
     transform="translate(-189.85481,-40.576642)"
     id="legendPoints">
    <g
       id="g3346"
       stroke-width="1"
       fill="#ffffff"
       stroke="#00008b">
      <line
         id="line3344"
         y2="88"
         x2="650.79999"
         y1="88"
         x1="635.79999" />
    </g>
    <g
       id="g3350"
       stroke-width="1"
       fill="#ffffff"
       stroke="#8b0000">
      <line
         id="line3348"
         y2="118"
         x2="650.79999"
         y1="118"
         x1="635.79999" />
    </g>
    <g
       id="g3354"
       stroke-width="1"
       fill="#ffffff"
       stroke="#006400">
      <line
         id="line3352"
         y2="148"
         x2="650.79999"
         y1="148"
         x1="635.79999" />
    </g>
  </g>
  <g
     transform="translate(-189.85481,-40.576642)"
     id="legendText">
    <text
       id="text3357"
       font-family="Verdana"
       font-size="15px"
       y="88"
       x="658.29999">λ=0.5</text>
    <text
       id="text3359"
       font-family="Verdana"
       font-size="15px"
       y="118"
       x="658.29999">λ=1</text>
    <text
       id="text3361"
       font-family="Verdana"
       font-size="15px"
       y="148"
       x="658.29999">λ=2</text>
  </g>
  <g
     transform="translate(-54.362106,-57)"
     id="plotXValues" />
  <g
     transform="translate(-54.362106,-57)"
     id="plotYValues" />
</svg>
