<?xml version="1.0" encoding="UTF-8" standalone="no"?>
<svg
   xmlns:dc="http://purl.org/dc/elements/1.1/"
   xmlns:cc="http://creativecommons.org/ns#"
   xmlns:rdf="http://www.w3.org/1999/02/22-rdf-syntax-ns#"
   xmlns:svg="http://www.w3.org/2000/svg"
   xmlns="http://www.w3.org/2000/svg"
   xmlns:sodipodi="http://sodipodi.sourceforge.net/DTD/sodipodi-0.dtd"
   xmlns:inkscape="http://www.inkscape.org/namespaces/inkscape"
   inkscape:version="1.0 (4035a4f, 2020-05-01)"
   sodipodi:docname="geometric_distribution.svg"
   id="svg1325"
   version="1.1"
   height="304.78165"
   width="553.43787">
  <metadata
     id="metadata1331">
    <rdf:RDF>
      <cc:Work
         rdf:about="">
        <dc:format>image/svg+xml</dc:format>
        <dc:type
           rdf:resource="http://purl.org/dc/dcmitype/StillImage" />
      </cc:Work>
    </rdf:RDF>
  </metadata>
  <defs
     id="defs1329" />
  <sodipodi:namedview
     inkscape:current-layer="svg1325"
     inkscape:window-maximized="0"
     inkscape:window-y="23"
     inkscape:window-x="0"
     inkscape:cy="143"
     inkscape:cx="367.24401"
     inkscape:zoom="1.3946667"
     showgrid="false"
     id="namedview1327"
     inkscape:window-height="1005"
     inkscape:window-width="1680"
     inkscape:pageshadow="2"
     inkscape:pageopacity="0"
     guidetolerance="10"
     gridtolerance="10"
     objecttolerance="10"
     borderopacity="1"
     bordercolor="#666666"
     pagecolor="#ffffff" />
  <!-- SVG plot written using Boost.Plot program (Creator Jacob Voytko) -->
  <!-- Use, modification and distribution of Boost.Plot subject to the -->
  <!-- Boost Software License, Version 1.0.-->
  <!-- (See accompanying file LICENSE_1_0.txt -->
  <!-- or copy at http://www.boost.org/LICENSE_1_0.txt) -->
  <clipPath
     id="plot_window">
    <rect
       id="rect1210"
       height="281"
       width="520.59998"
       y="59"
       x="85.199997" />
  </clipPath>
  <g
     transform="translate(-54.362106,-57)"
     style="fill:none"
     stroke-width="2"
     fill="rgb(255,255,255)"
     stroke="#778899"
     id="plotBackground">
    <rect
       style="fill:none"
       id="rect1216"
       height="283"
       width="522.59998"
       y="58"
       x="84.199997" />
  </g>
  <g
     transform="translate(-54.362106,-57)"
     stroke-width="0.5"
     stroke="#c8dcff"
     id="yMinorGrid" />
  <g
     transform="translate(-54.362106,-57)"
     stroke-width="1"
     stroke="#c8dcff"
     id="yMajorGrid" />
  <g
     transform="translate(-54.362106,-57)"
     stroke-width="0.5"
     stroke="#c8dcff"
     id="xMinorGrid" />
  <g
     transform="translate(-54.362106,-57)"
     stroke-width="1"
     stroke="#c8dcff"
     id="xMajorGrid" />
  <g
     transform="translate(-54.362106,-57)"
     stroke-width="1"
     stroke="#000000"
     id="yAxis">
    <line
       id="line1223"
       y2="346"
       x2="84.199997"
       y1="58"
       x1="84.199997" />
    <line
       id="line1225"
       y2="341"
       x2="84.199997"
       y1="58"
       x1="84.199997" />
  </g>
  <g
     transform="translate(-54.362106,-57)"
     stroke-width="1"
     stroke="#000000"
     id="xAxis">
    <line
       id="line1228"
       y2="341"
       x2="606.79999"
       y1="341"
       x1="79.199997" />
    <line
       id="line1230"
       y2="341"
       x2="606.79999"
       y1="341"
       x1="79.199997" />
  </g>
  <g
     transform="translate(-54.362106,-57)"
     stroke-width="1"
     stroke="#000000"
     id="yMinorTicks">
    <path
       id="path1233"
       fill="none"
       d="m 82.2,334.3 h 2 m -2,-6.8 h 2 m -2,-6.7 h 2 m -2,-6.7 h 2 m -2,-13.5 h 2 m -2,-6.8 h 2 m -2,-6.7 h 2 m -2,-6.7 h 2 m -2,-13.5 h 2 m -2,-6.7 h 2 m -2,-6.8 h 2 m -2,-6.7 h 2 m -2,-13.5 h 2 m -2,-6.7 h 2 m -2,-6.8 h 2 m -2,-6.7 h 2 m -2,-13.5 h 2 m -2,-6.7 h 2 m -2,-6.8 h 2 m -2,-6.7 h 2 m -2,-13.5 h 2 m -2,-6.7 h 2 m -2,-6.7 h 2 m -2,-6.8 h 2 m -2,-13.4 h 2 m -2,-6.8 h 2 m -2,-6.7 h 2 m -2,-6.8 h 2 m -2,-13.43 h 2 m -2,-6.74 h 2 m -2,-6.74 h 2 m -2,-6.74 h 2 m -2,-13.47 h 2 m -2,-6.74 h 2 M 82.2,341 h 2" />
  </g>
  <g
     transform="translate(-54.362106,-57)"
     stroke-width="1"
     stroke="#000000"
     id="xMinorTicks">
    <path
       id="path1236"
       fill="none"
       d="m 134.8,341 v 2 m 50.6,-2 v 2 m 50.6,-2 v 2 m 50.6,-2 v 2 m 101.2,-2 v 2 m 50.6,-2 v 2 m 50.6,-2 v 2 m 50.6,-2 v 2" />
  </g>
  <g
     transform="translate(-54.362106,-57)"
     stroke-width="2"
     stroke="#000000"
     id="yMajorTicks">
    <path
       id="path1239"
       fill="none"
       d="m 79.2,341 h 5 m -5,-33.7 h 5 m -5,-33.7 h 5 m -5,-33.7 h 5 m -5,-33.6 h 5 m -5,-33.7 h 5 m -5,-33.7 h 5 m -5,-33.7 h 5 m -5,-33.68 h 5 M 79.2,341 h 5" />
  </g>
  <g
     transform="translate(-54.362106,-57)"
     stroke-width="2"
     stroke="#000000"
     id="xMajorTicks">
    <path
       id="path1242"
       fill="none"
       d="m 84.2,341 v 5 m 253,-5 v 5 m 253,-5 v 5 m -506,-5 v 5" />
  </g>
  <g
     transform="translate(-54.362106,-57)"
     id="xTicksValues">
    <text
       id="text1245"
       font-family="Verdana"
       font-size="12px"
       text-anchor="middle"
       y="361.60001"
       x="84.199997">0</text>
    <text
       id="text1247"
       font-family="Verdana"
       font-size="12px"
       text-anchor="middle"
       y="361.60001"
       x="337.20001">5</text>
    <text
       id="text1249"
       font-family="Verdana"
       font-size="12px"
       text-anchor="middle"
       y="361.60001"
       x="590.20001">10</text>
    <text
       id="text1251"
       font-family="Verdana"
       font-size="12px"
       text-anchor="middle"
       y="361.60001"
       x="84.199997">0</text>
  </g>
  <g
     transform="translate(-54.362106,-57)"
     id="yTicksValues">
    <text
       id="text1254"
       font-family="Verdana"
       font-size="12px"
       text-anchor="end"
       y="343.39999"
       x="73.199997">0</text>
    <text
       id="text1256"
       font-family="Verdana"
       font-size="12px"
       text-anchor="end"
       y="309.70001"
       x="73.199997">0.1</text>
    <text
       id="text1258"
       font-family="Verdana"
       font-size="12px"
       text-anchor="end"
       y="276"
       x="73.199997">0.2</text>
    <text
       id="text1260"
       font-family="Verdana"
       font-size="12px"
       text-anchor="end"
       y="242.3"
       x="73.199997">0.3</text>
    <text
       id="text1262"
       font-family="Verdana"
       font-size="12px"
       text-anchor="end"
       y="208.7"
       x="73.199997">0.4</text>
    <text
       id="text1264"
       font-family="Verdana"
       font-size="12px"
       text-anchor="end"
       y="175"
       x="73.199997">0.5</text>
    <text
       id="text1266"
       font-family="Verdana"
       font-size="12px"
       text-anchor="end"
       y="141.3"
       x="73.199997">0.6</text>
    <text
       id="text1268"
       font-family="Verdana"
       font-size="12px"
       text-anchor="end"
       y="107.6"
       x="73.199997">0.7</text>
    <text
       id="text1270"
       font-family="Verdana"
       font-size="12px"
       text-anchor="end"
       y="73.919998"
       x="73.199997">0.8</text>
    <text
       id="text1272"
       font-family="Verdana"
       font-size="12px"
       text-anchor="end"
       y="343.39999"
       x="73.199997">0</text>
  </g>
  <g
     transform="translate(-54.362106,-57)"
     stroke-width="2"
     id="plotLines">
    <g
       id="g1283"
       stroke-width="1"
       stroke="#00008b"
       clip-path="url(#plot_window)">
      <path
         id="path1281"
         fill="none"
         d="m 84.2,273.6 2.61,0.8 2.62,0.8 2.61,0.7 2.61,0.8 2.62,0.7 2.61,0.7 2.62,0.8 2.6,0.7 2.6,0.7 2.6,0.7 2.6,0.6 2.7,0.7 2.6,0.7 2.6,0.7 2.6,0.6 2.6,0.7 2.6,0.6 2.6,0.6 2.6,0.7 2.7,0.6 2.6,0.6 2.6,0.6 2.6,0.6 2.6,0.6 2.6,0.6 2.6,0.6 2.7,0.5 2.6,0.6 2.6,0.6 2.6,0.5 2.6,0.6 2.6,0.5 2.6,0.5 2.6,0.6 2.7,0.5 2.6,0.5 2.6,0.5 2.6,0.5 2.6,0.5 2.6,0.5 2.6,0.5 2.6,0.5 2.7,0.5 2.6,0.4 2.6,0.5 2.6,0.4 2.6,0.5 2.6,0.5 2.6,0.4 2.6,0.4 2.7,0.5 2.6,0.4 2.6,0.4 2.6,0.4 2.6,0.5 2.6,0.4 2.6,0.4 2.7,0.4 2.6,0.4 2.6,0.4 2.6,0.3 2.6,0.4 2.6,0.4 2.6,0.4 2.6,0.3 2.7,0.4 2.6,0.4 2.6,0.3 2.6,0.4 2.6,0.3 2.6,0.4 2.6,0.3 2.6,0.4 2.7,0.3 2.6,0.3 2.6,0.3 2.6,0.4 2.6,0.3 2.6,0.3 2.6,0.3 2.7,0.3 2.6,0.3 2.6,0.3 2.6,0.3 2.6,0.3 2.6,0.3 2.6,0.3 2.6,0.3 2.7,0.2 2.6,0.3 2.6,0.3 2.6,0.3 2.6,0.2 2.6,0.3 2.6,0.3 2.6,0.2 2.7,0.3 2.6,0.2 2.6,0.3 2.6,0.2 2.6,0.3 2.6,0.2 2.6,0.2 2.7,0.3 2.6,0.2 2.6,0.2 2.6,0.3 2.6,0.2 2.6,0.2 2.6,0.2 2.6,0.3 2.7,0.2 2.6,0.2 2.6,0.2 2.6,0.2 2.6,0.2 2.6,0.2 2.6,0.2 2.6,0.2 2.7,0.2 2.6,0.2 2.6,0.2 2.6,0.2 2.6,0.2 2.6,0.1 2.6,0.2 2.7,0.2 2.6,0.2 2.6,0.2 2.6,0.1 2.6,0.2 2.6,0.2 2.6,0.1 2.6,0.2 2.7,0.2 2.6,0.1 2.6,0.2 2.6,0.2 2.6,0.1 2.6,0.2 2.6,0.1 2.6,0.2 2.7,0.1 2.6,0.2 2.6,0.1 2.6,0.2 2.6,0.1 2.6,0.2 2.6,0.1 2.6,0.1 2.7,0.2 2.6,0.1 2.6,0.1 2.6,0.2 2.6,0.1 2.6,0.1 2.6,0.2 2.7,0.1 2.6,0.1 2.6,0.1 2.6,0.2 2.6,0.1 2.6,0.1 2.6,0.1 2.6,0.1 2.7,0.2 2.6,0.1 2.6,0.1 2.6,0.1 2.6,0.1 2.6,0.1 2.6,0.1 2.6,0.1 2.7,0.1 2.6,0.1 2.6,0.1 2.6,0.1 2.6,0.1 2.6,0.1 2.6,0.1 2.7,0.1 2.6,0.1 2.6,0.1 2.6,0.1 2.6,0.1 2.6,0.1 2.6,0.1 2.6,0.1 2.7,0.1 2.6,0.1 h 2.6 l 2.6,0.1 2.6,0.1 2.6,0.1 2.6,0.1 2.6,0.1 h 2.7 l 2.6,0.1 2.6,0.1 2.6,0.1" />
    </g>
    <g
       id="g1287"
       stroke-width="1"
       stroke="#8b0000"
       clip-path="url(#plot_window)">
      <path
         id="path1285"
         fill="none"
         d="m 84.2,172.6 2.61,5.9 2.62,5.7 2.61,5.5 2.61,5.3 2.62,5.2 2.61,4.9 2.62,4.8 2.6,4.6 2.6,4.5 2.6,4.3 2.6,4.1 2.7,4 2.6,3.8 2.6,3.8 2.6,3.5 2.6,3.5 2.6,3.3 2.6,3.3 2.6,3.1 2.7,3 2.6,2.9 2.6,2.8 2.6,2.7 2.6,2.6 2.6,2.5 2.6,2.4 2.7,2.3 2.6,2.3 2.6,2.2 2.6,2 2.6,2.1 2.6,1.9 2.6,1.9 2.6,1.8 2.7,1.8 2.6,1.7 2.6,1.6 2.6,1.6 2.6,1.5 2.6,1.5 2.6,1.4 2.6,1.3 2.7,1.4 2.6,1.2 2.6,1.3 2.6,1.1 2.6,1.2 2.6,1.1 2.6,1 2.6,1.1 2.7,1 2.6,0.9 2.6,0.9 2.6,0.9 2.6,0.9 2.6,0.8 2.6,0.8 2.7,0.8 2.6,0.7 2.6,0.7 2.6,0.7 2.6,0.7 2.6,0.6 2.6,0.7 2.6,0.6 2.7,0.5 2.6,0.6 2.6,0.5 2.6,0.6 2.6,0.5 2.6,0.4 2.6,0.5 2.6,0.5 2.7,0.4 2.6,0.4 2.6,0.4 2.6,0.4 2.6,0.4 2.6,0.3 2.6,0.4 2.7,0.3 2.6,0.4 2.6,0.3 2.6,0.3 2.6,0.3 2.6,0.2 2.6,0.3 2.6,0.3 2.7,0.2 2.6,0.3 2.6,0.2 2.6,0.2 2.6,0.3 2.6,0.2 2.6,0.2 2.6,0.2 2.7,0.2 2.6,0.2 2.6,0.1 2.6,0.2 2.6,0.2 2.6,0.1 2.6,0.2 2.7,0.1 2.6,0.2 2.6,0.1 2.6,0.1 2.6,0.2 2.6,0.1 2.6,0.1 2.6,0.1 2.7,0.1 2.6,0.2 2.6,0.1 2.6,0.1 2.6,0.1 h 2.6 l 2.6,0.1 2.6,0.1 2.7,0.1 2.6,0.1 2.6,0.1 h 2.6 l 2.6,0.1 2.6,0.1 h 2.6 l 2.7,0.1 2.6,0.1 h 2.6 l 2.6,0.1 2.6,0.1 h 2.6 l 2.6,0.1 h 2.6 l 2.7,0.1 h 2.6 l 2.6,0.1 h 2.6 2.6 l 2.6,0.1 h 2.6 l 2.6,0.1 h 2.7 2.6 l 2.6,0.1 h 2.6 2.6 l 2.6,0.1 h 2.6 2.6 2.7 l 2.6,0.1 h 2.6 2.6 2.6 l 2.6,0.1 h 2.6 2.7 2.6 l 2.6,0.1 h 2.6 2.6 2.6 2.6 2.6 l 2.7,0.1 h 2.6 2.6 2.6 2.6 2.6 2.6 l 2.6,0.1 h 2.7 2.6 2.6 2.6 2.6 2.6 2.6 2.7 l 2.6,0.1 h 2.6 2.6 2.6 2.6 2.6 2.6 2.7 2.6 2.6 2.6 2.6 2.6 2.6 2.6 l 2.7,0.1 h 2.6 2.6 2.6" />
    </g>
    <g
       id="g1291"
       stroke-width="1"
       stroke="#006400"
       clip-path="url(#plot_window)">
      <path
         id="path1289"
         fill="none"
         d="m 84.2,71.52 2.61,21.49 2.62,19.79 2.61,18.2 2.61,16.7 2.62,15.4 2.61,14.2 2.62,13.1 2.6,12 2.6,11.1 2.6,10.1 2.6,9.4 2.7,8.6 2.6,7.9 2.6,7.3 2.6,6.7 2.6,6.2 2.6,5.7 2.6,5.2 2.6,4.8 2.7,4.5 2.6,4.1 2.6,3.7 2.6,3.5 2.6,3.1 2.6,3 2.6,2.7 2.7,2.4 2.6,2.3 2.6,2.1 2.6,1.9 2.6,1.8 2.6,1.6 2.6,1.5 2.6,1.4 2.7,1.3 2.6,1.2 2.6,1.1 2.6,0.9 2.6,1 2.6,0.8 2.6,0.8 2.6,0.7 2.7,0.6 2.6,0.6 2.6,0.6 2.6,0.5 2.6,0.5 2.6,0.4 2.6,0.4 2.6,0.4 2.7,0.3 2.6,0.3 2.6,0.3 2.6,0.3 2.6,0.2 2.6,0.2 2.6,0.2 2.7,0.2 2.6,0.2 2.6,0.2 2.6,0.1 2.6,0.1 2.6,0.2 2.6,0.1 2.6,0.1 2.7,0.1 2.6,0.1 2.6,0.1 h 2.6 l 2.6,0.1 2.6,0.1 h 2.6 l 2.6,0.1 h 2.7 l 2.6,0.1 h 2.6 l 2.6,0.1 h 2.6 2.6 l 2.6,0.1 h 2.7 2.6 2.6 2.6 l 2.6,0.1 h 2.6 2.6 2.6 2.7 2.6 l 2.6,0.1 h 2.6 2.6 2.6 2.6 2.6 2.7 2.6 2.6 2.6 2.6 2.6 2.6 l 2.7,0.1 h 2.6 2.6 2.6 2.6 2.6 2.6 2.6 2.7 2.6 2.6 2.6 2.6 2.6 2.6 2.6 2.7 2.6 2.6 2.6 2.6 2.6 2.6 2.7 2.6 2.6 2.6 2.6 2.6 2.6 2.6 2.7 2.6 2.6 2.6 2.6 2.6 2.6 2.6 2.7 2.6 2.6 2.6 2.6 2.6 2.6 2.6 2.7 2.6 2.6 2.6 2.6 2.6 2.6 2.7 2.6 2.6 2.6 2.6 2.6 2.6 2.6 2.7 2.6 2.6 2.6 2.6 2.6 2.6 2.6 2.7 2.6 2.6 2.6 2.6 2.6 2.6 2.7 2.6 2.6 2.6 2.6 2.6 2.6 2.6 2.7 2.6 2.6 2.6 2.6 2.6 2.6 2.6 2.7 2.6 2.6 2.6" />
    </g>
  </g>
  <g
     transform="translate(-54.362106,-57)"
     clip-path="url(#plot_window)"
     id="plotPoints" />
  <g
     transform="translate(-185.57626,-41.225621)"
     style="fill:none"
     stroke-width="1"
     fill="rgb(255,255,255)"
     stroke="#778899"
     id="legendBackground">
    <rect
       style="fill:none"
       id="rect1295"
       height="105"
       width="103.2"
       y="58"
       x="620.79999" />
    <rect
       style="fill:none"
       id="rect1297"
       height="105"
       width="103.2"
       y="58"
       x="620.79999" />
  </g>
  <g
     transform="translate(-185.57626,-41.225621)"
     id="legendPoints">
    <g
       id="g1302"
       stroke-width="1"
       fill="#ffffff"
       stroke="#00008b">
      <line
         id="line1300"
         y2="88"
         x2="650.79999"
         y1="88"
         x1="635.79999" />
    </g>
    <g
       id="g1306"
       stroke-width="1"
       fill="#ffffff"
       stroke="#8b0000">
      <line
         id="line1304"
         y2="118"
         x2="650.79999"
         y1="118"
         x1="635.79999" />
    </g>
    <g
       id="g1310"
       stroke-width="1"
       fill="#ffffff"
       stroke="#006400">
      <line
         id="line1308"
         y2="148"
         x2="650.79999"
         y1="148"
         x1="635.79999" />
    </g>
  </g>
  <g
     transform="translate(-185.57626,-41.225621)"
     id="legendText">
    <text
       id="text1313"
       font-family="Verdana"
       font-size="15px"
       y="88"
       x="658.29999">p=0.2</text>
    <text
       id="text1315"
       font-family="Verdana"
       font-size="15px"
       y="118"
       x="658.29999">p=0.5</text>
    <text
       id="text1317"
       font-family="Verdana"
       font-size="15px"
       y="148"
       x="658.29999">p=0.8</text>
  </g>
  <g
     transform="translate(-54.362106,-57)"
     id="plotXValues" />
  <g
     transform="translate(-54.362106,-57)"
     id="plotYValues" />
</svg>
