<?xml version="1.0" encoding="UTF-8" standalone="no"?>
<svg
   xmlns:osb="http://www.openswatchbook.org/uri/2009/osb"
   xmlns:dc="http://purl.org/dc/elements/1.1/"
   xmlns:cc="http://creativecommons.org/ns#"
   xmlns:rdf="http://www.w3.org/1999/02/22-rdf-syntax-ns#"
   xmlns:svg="http://www.w3.org/2000/svg"
   xmlns="http://www.w3.org/2000/svg"
   xmlns:sodipodi="http://sodipodi.sourceforge.net/DTD/sodipodi-0.dtd"
   xmlns:inkscape="http://www.inkscape.org/namespaces/inkscape"
   class="animated"
   width="195.03908mm"
   height="20.310081mm"
   viewBox="0 0 921.44446 20.310081"
   version="1.1"
   id="svg2080"
   inkscape:version="1.0 (4035a4f, 2020-05-01)"
   sodipodi:docname="shuffle_pre.svg">
  <defs
     id="defs2074">
    <rect
       x="39.18819"
       y="56.393085"
       width="80.384132"
       height="38.173286"
       id="rect1146" />
    <rect
       x="145.99998"
       y="28.130173"
       width="74.144264"
       height="34.135727"
       id="rect1106" />
    <linearGradient
       id="linearGradient3355"
       osb:paint="solid">
      <stop
         style="stop-color:#0000ff;stop-opacity:1;"
         offset="0"
         id="stop3353" />
    </linearGradient>
    <inkscape:path-effect
       effect="bspline"
       id="path-effect909"
       is_visible="true"
       lpeversion="1"
       weight="33.333333"
       steps="2"
       helper_size="0"
       apply_no_weight="true"
       apply_with_weight="true"
       only_selected="false" />
    <inkscape:path-effect
       only_selected="false"
       apply_with_weight="true"
       apply_no_weight="true"
       helper_size="0"
       steps="2"
       weight="33.333333"
       lpeversion="1"
       is_visible="true"
       id="path-effect2849"
       effect="bspline" />
    <inkscape:path-effect
       only_selected="false"
       apply_with_weight="true"
       apply_no_weight="true"
       helper_size="0"
       steps="2"
       weight="33.333333"
       lpeversion="1"
       is_visible="true"
       id="path-effect2845"
       effect="bspline" />
    <rect
       id="rect2647"
       height="21.960417"
       width="23.547916"
       y="117.21042"
       x="25.4" />
    <rect
       x="25.4"
       y="117.21042"
       width="23.547916"
       height="21.960417"
       id="rect2835" />
    <rect
       id="rect2841"
       height="21.960417"
       width="23.547916"
       y="117.21042"
       x="25.4" />
    <rect
       id="rect1114"
       height="34.135727"
       width="74.144264"
       y="28.130173"
       x="145.99998" />
    <rect
       id="rect1154"
       height="38.173286"
       width="80.384132"
       y="56.393085"
       x="39.18819" />
    <rect
       x="39.18819"
       y="56.393085"
       width="80.384132"
       height="38.173286"
       id="rect1160" />
  </defs>
  <sodipodi:namedview
     inkscape:window-maximized="0"
     inkscape:window-y="23"
     inkscape:window-x="0"
     inkscape:window-height="1005"
     inkscape:window-width="1680"
     fit-margin-bottom="0"
     fit-margin-right="0"
     fit-margin-left="0"
     fit-margin-top="0"
     showgrid="false"
     inkscape:document-rotation="0"
     inkscape:current-layer="layer1"
     inkscape:document-units="mm"
     inkscape:cy="-31.343965"
     inkscape:cx="99.984644"
     inkscape:zoom="3.4055229"
     inkscape:pageshadow="2"
     inkscape:pageopacity="0.0"
     borderopacity="1.0"
     bordercolor="#666666"
     pagecolor="#ffffff"
     id="base" />
  <metadata
     id="metadata2077">
    <rdf:RDF>
      <cc:Work
         rdf:about="">
        <dc:format>image/svg+xml</dc:format>
        <dc:type
           rdf:resource="http://purl.org/dc/dcmitype/StillImage" />
        <dc:title />
      </cc:Work>
    </rdf:RDF>
  </metadata>
  <g
     transform="translate(-16.063987,-144.59981)"
     id="layer1"
     inkscape:groupmode="layer"
     inkscape:label="Layer 1">
    <g
       data-id="box0"
       id="g1132">
      <path
         d="M 19.0405 109.754 L 109.041 109.754 L 109.041 199.754 L 19.0405 199.754 Z"
         style="fill:none;stop-color:#000000;stroke:#ff5555;stroke-width:1.72125"
         id="rect2643" />
      <path
         d="M 19.0405 109.754 L 109.041 109.754 L 109.041 199.754 L 19.0405 199.754 Z"
         style="fill:#bee4fd;fill-opacity:1;stop-color:#000000;stroke:#3e4837;stroke-dasharray:none;stroke-miterlimit:4;stroke-opacity:1;stroke-width:5.95314"
         id="rect2704" />
      <g
         style="font-style:normal;font-variant:normal;font-weight:normal;font-stretch:normal;font-size:9.87778px;line-height:1.25;font-family:sans-serif;-inkscape-font-specification:'sans-serif, Normal';font-variant-ligatures:normal;font-variant-caps:normal;font-variant-numeric:normal;font-variant-east-asian:normal;white-space:pre;shape-inside:url(#rect2647);fill:#000000;fill-opacity:1;stroke:none"
         id="text2708"
         aria-label="0">
        <path
           id="path3657"
           style="font-style:normal;font-variant:normal;font-weight:normal;font-stretch:normal;font-size:9.87778px;font-family:sans-serif;-inkscape-font-specification:'sans-serif, Normal';font-variant-ligatures:normal;font-variant-caps:normal;font-variant-numeric:normal;font-variant-east-asian:normal"
           d="M 69.6293 154.744 C 69.6293 157.645 69.1736 159.775 68.2619 161.134 C 67.3577 162.487 65.9504 163.165 64.0406 163.165 C 62.1017 163.165 60.6836 162.478 59.7866 161.104 C 58.8965 159.73 58.4516 157.615 58.4516 154.765 C 58.4516 151.891 58.904 149.773 59.8082 148.408 C 60.7124 147.031 62.1233 146.344 64.0406 146.344 C 65.9792 146.344 67.394 147.043 68.2838 148.438 C 69.1808 149.827 69.6293 151.93 69.6293 154.744 Z M 66.7751 159.67 C 67.0286 159.085 67.1984 158.398 67.2851 157.609 C 67.3793 156.814 67.4264 155.86 67.4264 154.744 C 67.4264 153.646 67.3793 152.689 67.2851 151.879 C 67.1984 151.069 67.025 150.379 66.7643 149.818 C 66.5114 149.26 66.164 148.84 65.7227 148.558 C 65.2886 148.276 64.7279 148.135 64.0406 148.135 C 63.3605 148.135 62.7962 148.276 62.3477 148.558 C 61.9064 148.84 61.5554 149.266 61.295 149.839 C 61.049 150.373 60.8792 151.072 60.785 151.933 C 60.6983 152.794 60.6548 153.736 60.6548 154.765 C 60.6548 155.896 60.6947 156.838 60.7739 157.597 C 60.8537 158.356 61.0238 159.037 61.2842 159.64 C 61.5227 160.201 61.8593 160.633 62.2934 160.93 C 62.7347 161.224 63.317 161.374 64.0406 161.374 C 64.7207 161.374 65.285 161.233 65.7335 160.951 C 66.182 160.669 66.5294 160.243 66.7751 159.67 Z" />
      </g>
    </g>
    <g
       data-id="box1"
       id="g1137">
      <path
         d="M 110.762 109.754 L 200.762 109.754 L 200.762 199.754 L 110.762 199.754 Z"
         style="fill:#bee4fd;fill-opacity:1;stop-color:#000000;stroke:#3e4837;stroke-dasharray:none;stroke-miterlimit:4;stroke-opacity:1;stroke-width:5.95314"
         id="rect2712" />
      <g
         style="font-style:normal;font-variant:normal;font-weight:normal;font-stretch:normal;font-size:9.87778px;line-height:1.25;font-family:sans-serif;-inkscape-font-specification:'sans-serif, Normal';font-variant-ligatures:normal;font-variant-caps:normal;font-variant-numeric:normal;font-variant-east-asian:normal;white-space:pre;shape-inside:url(#rect2647);fill:#000000;fill-opacity:1;stroke:none"
         id="text2716"
         aria-label="1">
        <path
           id="path3660"
           style="font-style:normal;font-variant:normal;font-weight:normal;font-stretch:normal;font-size:9.87778px;font-family:sans-serif;-inkscape-font-specification:'sans-serif, Normal';font-variant-ligatures:normal;font-variant-caps:normal;font-variant-numeric:normal;font-variant-east-asian:normal"
           d="M 160.135 162.862 L 151.388 162.862 L 151.388 161.212 L 154.752 161.212 L 154.752 150.379 L 151.388 150.379 L 151.388 148.906 C 151.844 148.906 152.332 148.867 152.853 148.795 C 153.375 148.717 153.769 148.606 154.036 148.462 C 154.369 148.279 154.63 148.051 154.818 147.778 C 155.013 147.496 155.125 147.118 155.154 146.647 L 156.836 146.647 L 156.836 161.212 L 160.135 161.212 Z" />
      </g>
    </g>
    <g
       data-id="box2"
       id="g1142">
      <path
         d="M 202.483 109.754 L 292.483 109.754 L 292.483 199.754 L 202.483 199.754 Z"
         style="fill:#bee4fd;fill-opacity:1;stop-color:#000000;stroke:#3e4837;stroke-dasharray:none;stroke-miterlimit:4;stroke-opacity:1;stroke-width:5.95314"
         id="rect2720" />
      <g
         style="font-style:normal;font-variant:normal;font-weight:normal;font-stretch:normal;font-size:9.87778px;line-height:1.25;font-family:sans-serif;-inkscape-font-specification:'sans-serif, Normal';font-variant-ligatures:normal;font-variant-caps:normal;font-variant-numeric:normal;font-variant-east-asian:normal;white-space:pre;shape-inside:url(#rect2647);fill:#000000;fill-opacity:1;stroke:none"
         id="text2724"
         aria-label="2">
        <path
           id="path3663"
           style="font-style:normal;font-variant:normal;font-weight:normal;font-stretch:normal;font-size:9.87778px;font-family:sans-serif;-inkscape-font-specification:'sans-serif, Normal';font-variant-ligatures:normal;font-variant-caps:normal;font-variant-numeric:normal;font-variant-east-asian:normal"
           d="M 252.953 163.003 L 242.014 163.003 L 242.014 160.735 C 242.774 160.081 243.532 159.433 244.293 158.782 C 245.06 158.128 245.771 157.48 246.43 156.838 C 247.819 155.491 248.77 154.426 249.286 153.637 C 249.799 152.842 250.055 151.984 250.055 151.063 C 250.055 150.226 249.776 149.569 249.22 149.101 C 248.669 148.624 247.9 148.384 246.907 148.384 C 246.25 148.384 245.537 148.498 244.77 148.732 C 244.003 148.963 243.253 149.317 242.524 149.794 L 242.414 149.794 L 242.414 147.517 C 242.929 147.265 243.613 147.031 244.466 146.821 C 245.328 146.611 246.158 146.509 246.961 146.509 C 248.62 146.509 249.918 146.908 250.858 147.712 C 251.799 148.507 252.269 149.587 252.269 150.955 C 252.269 151.57 252.19 152.146 252.031 152.683 C 251.877 153.211 251.65 153.712 251.347 154.189 C 251.065 154.639 250.732 155.08 250.348 155.515 C 249.972 155.95 249.513 156.43 248.971 156.958 C 248.197 157.717 247.396 158.455 246.572 159.172 C 245.746 159.88 244.977 160.54 244.259 161.146 L 252.953 161.146 Z" />
      </g>
    </g>
    <g
       data-id="box3"
       id="g1275">
      <path
         d="M 477.647 109.754 L 567.647 109.754 L 567.647 199.754 L 477.647 199.754 Z"
         style="fill:#bee4fd;fill-opacity:1;stop-color:#000000;stroke:#3e4837;stroke-dasharray:none;stroke-miterlimit:4;stroke-opacity:1;stroke-width:5.95311"
         id="rect2744" />
      <g
         style="font-style:normal;font-variant:normal;font-weight:normal;font-stretch:normal;font-size:9.87778px;line-height:1.25;font-family:sans-serif;-inkscape-font-specification:'sans-serif, Normal';font-variant-ligatures:normal;font-variant-caps:normal;font-variant-numeric:normal;font-variant-east-asian:normal;white-space:pre;shape-inside:url(#rect2835);fill:#000000;fill-opacity:1;stroke:none"
         id="text2833"
         aria-label="…">
        <path
           id="path3771"
           style="font-style:normal;font-variant:normal;font-weight:normal;font-stretch:normal;font-size:9.87778px;font-family:sans-serif;-inkscape-font-specification:'sans-serif, Normal';font-variant-ligatures:normal;font-variant-caps:normal;font-variant-numeric:normal;font-variant-east-asian:normal"
           d="M 529.808 155.965 L 527.597 155.965 L 527.597 153.544 L 529.808 153.544 Z M 523.754 155.965 L 521.54 155.965 L 521.54 153.544 L 523.754 153.544 Z M 517.7 155.965 L 515.486 155.965 L 515.486 153.544 L 517.7 153.544 Z" />
      </g>
    </g>
    <g
       data-id="box4"
       id="g1270">
      <path
         d="M 385.926 109.754 L 475.926 109.754 L 475.926 199.754 L 385.926 199.754 Z"
         style="fill:#bee4fd;fill-opacity:1;stop-color:#000000;stroke:#3e4837;stroke-dasharray:none;stroke-miterlimit:4;stroke-opacity:1;stroke-width:5.95314"
         id="rect2736" />
      <g
         style="font-style:normal;font-variant:normal;font-weight:normal;font-stretch:normal;font-size:9.87778px;line-height:1.25;font-family:sans-serif;-inkscape-font-specification:'sans-serif, Normal';font-variant-ligatures:normal;font-variant-caps:normal;font-variant-numeric:normal;font-variant-east-asian:normal;white-space:pre;shape-inside:url(#rect2841);fill:#000000;fill-opacity:1;stroke:none"
         id="text2839"
         aria-label="…">
        <path
           id="path3667"
           style="font-style:normal;font-variant:normal;font-weight:normal;font-stretch:normal;font-size:9.87778px;font-family:sans-serif;-inkscape-font-specification:'sans-serif, Normal';font-variant-ligatures:normal;font-variant-caps:normal;font-variant-numeric:normal;font-variant-east-asian:normal"
           d="M 438.086 155.965 L 435.875 155.965 L 435.875 153.544 L 438.086 153.544 Z M 432.032 155.965 L 429.818 155.965 L 429.818 153.544 L 432.032 153.544 Z M 425.978 155.965 L 423.764 155.965 L 423.764 153.544 L 425.978 153.544 Z" />
      </g>
    </g>
    <g
       data-id="box5"
       id="g1285">
      <path
         d="M 661.089 109.754 L 751.089 109.754 L 751.089 199.754 L 661.089 199.754 Z"
         style="fill:#bee4fd;fill-opacity:1;stop-color:#000000;stroke:#3e4837;stroke-dasharray:none;stroke-miterlimit:4;stroke-opacity:1;stroke-width:5.95314"
         id="rect2760" />
      <g
         style="font-style:normal;font-variant:normal;font-weight:normal;font-stretch:normal;font-size:9.87778px;line-height:1.25;font-family:sans-serif;-inkscape-font-specification:'sans-serif, Normal';font-variant-ligatures:normal;font-variant-caps:normal;font-variant-numeric:normal;font-variant-east-asian:normal;white-space:pre;shape-inside:url(#rect2647);fill:#000000;fill-opacity:1;stroke:none"
         id="text2772"
         aria-label="…">
        <path
           id="path3683"
           style="font-style:normal;font-variant:normal;font-weight:normal;font-stretch:normal;font-size:9.87778px;font-family:sans-serif;-inkscape-font-specification:'sans-serif, Normal';font-variant-ligatures:normal;font-variant-caps:normal;font-variant-numeric:normal;font-variant-east-asian:normal"
           d="M 713.252 155.965 L 711.038 155.965 L 711.038 153.544 L 713.252 153.544 Z M 707.195 155.965 L 704.981 155.965 L 704.981 153.544 L 707.195 153.544 Z M 701.141 155.965 L 698.927 155.965 L 698.927 153.544 L 701.141 153.544 Z" />
      </g>
    </g>
    <g
       data-id="box6"
       id="g1280">
      <path
         d="M 569.368 109.754 L 659.368 109.754 L 659.368 199.754 L 569.368 199.754 Z"
         style="fill:#bee4fd;fill-opacity:1;stop-color:#000000;stroke:#3e4837;stroke-dasharray:none;stroke-miterlimit:4;stroke-opacity:1;stroke-width:5.95314"
         id="rect2752" />
      <g
         aria-label="…"
         id="g1092"
         style="font-style:normal;font-variant:normal;font-weight:normal;font-stretch:normal;font-size:9.87778px;line-height:1.25;font-family:sans-serif;-inkscape-font-specification:'sans-serif, Normal';font-variant-ligatures:normal;font-variant-caps:normal;font-variant-numeric:normal;font-variant-east-asian:normal;white-space:pre;shape-inside:url(#rect2647);fill:#000000;fill-opacity:1;stroke:none">
        <path
           d="M 621.53 155.965 L 619.319 155.965 L 619.319 153.544 L 621.53 153.544 Z M 615.476 155.965 L 613.262 155.965 L 613.262 153.544 L 615.476 153.544 Z M 609.419 155.965 L 607.205 155.965 L 607.205 153.544 L 609.419 153.544 Z"
           style="font-style:normal;font-variant:normal;font-weight:normal;font-stretch:normal;font-size:9.87778px;font-family:sans-serif;-inkscape-font-specification:'sans-serif, Normal';font-variant-ligatures:normal;font-variant-caps:normal;font-variant-numeric:normal;font-variant-east-asian:normal"
           id="path1090" />
      </g>
    </g>
    <g
       data-id="box7"
       id="g1265">
      <path
         d="M 294.204 109.754 L 384.204 109.754 L 384.204 199.754 L 294.204 199.754 Z"
         style="fill:#bee4fd;fill-opacity:1;stop-color:#000000;stroke:#3e4837;stroke-dasharray:none;stroke-miterlimit:4;stroke-opacity:1;stroke-width:5.95314"
         id="rect2728" />
      <g
         style="font-style:normal;font-variant:normal;font-weight:normal;font-stretch:normal;font-size:8.33333px;line-height:1.25;font-family:sans-serif;-inkscape-font-specification:'sans-serif, Normal';font-variant-ligatures:normal;font-variant-caps:normal;font-variant-numeric:normal;font-variant-east-asian:normal;white-space:pre;shape-inside:url(#rect1146)"
         id="text1144"
         aria-label="3">
        <path
           id="path1176"
           style="font-style:normal;font-variant:normal;font-weight:normal;font-stretch:normal;font-size:8.33333px;font-family:sans-serif;-inkscape-font-specification:'sans-serif, Normal';font-variant-ligatures:normal;font-variant-caps:normal;font-variant-numeric:normal;font-variant-east-asian:normal"
           d="M 343.85 155.089 C 344.24 155.44 344.561 155.878 344.813 156.409 C 345.065 156.937 345.191 157.621 345.191 158.458 C 345.191 159.289 345.041 160.051 344.741 160.741 C 344.438 161.434 344.015 162.037 343.469 162.55 C 342.86 163.117 342.14 163.54 341.309 163.819 C 340.487 164.086 339.584 164.221 338.6 164.221 C 337.592 164.221 336.599 164.098 335.621 163.855 C 334.646 163.618 333.842 163.357 333.218 163.072 L 333.218 160.522 L 333.401 160.522 C 334.091 160.978 334.904 161.356 335.84 161.656 C 336.776 161.959 337.679 162.109 338.552 162.109 C 339.065 162.109 339.608 162.025 340.187 161.854 C 340.766 161.683 341.234 161.431 341.591 161.095 C 341.966 160.738 342.242 160.342 342.422 159.913 C 342.608 159.481 342.701 158.935 342.701 158.275 C 342.701 157.624 342.596 157.087 342.383 156.664 C 342.182 156.232 341.897 155.896 341.531 155.653 C 341.162 155.398 340.721 155.227 340.199 155.14 C 339.677 155.041 339.116 154.993 338.513 154.993 L 337.415 154.993 L 337.415 152.965 L 338.27 152.965 C 339.506 152.965 340.493 152.71 341.225 152.197 C 341.966 151.675 342.335 150.919 342.335 149.926 C 342.335 149.488 342.242 149.104 342.053 148.78 C 341.867 148.444 341.606 148.174 341.273 147.961 C 340.922 147.751 340.55 147.604 340.151 147.523 C 339.752 147.439 339.299 147.4 338.795 147.4 C 338.021 147.4 337.199 147.538 336.329 147.814 C 335.459 148.09 334.637 148.483 333.863 148.987 L 333.74 148.987 L 333.74 146.434 C 334.319 146.149 335.087 145.891 336.05 145.654 C 337.016 145.411 337.952 145.288 338.855 145.288 C 339.743 145.288 340.526 145.369 341.201 145.531 C 341.876 145.696 342.485 145.954 343.031 146.314 C 343.616 146.704 344.06 147.175 344.363 147.73 C 344.663 148.282 344.813 148.93 344.813 149.671 C 344.813 150.679 344.456 151.561 343.739 152.32 C 343.031 153.067 342.194 153.541 341.225 153.736 L 341.225 153.907 C 341.615 153.97 342.062 154.108 342.566 154.321 C 343.073 154.525 343.499 154.78 343.85 155.089 Z" />
      </g>
    </g>
    <g
       data-id="box8"
       id="g1292">
      <path
         d="M 752.811 109.754 L 842.811 109.754 L 842.811 199.754 L 752.811 199.754 Z"
         style="fill:#bee4fd;fill-opacity:1;stop-color:#000000;stroke:#3e4837;stroke-dasharray:none;stroke-miterlimit:4;stroke-opacity:1;stroke-width:5.95314"
         id="rect2768" />
      <g
         style="font-style:normal;font-variant:normal;font-weight:normal;font-stretch:normal;font-size:8.33333px;line-height:1.25;font-family:sans-serif;-inkscape-font-specification:'sans-serif, Normal';font-variant-ligatures:normal;font-variant-caps:normal;font-variant-numeric:normal;font-variant-east-asian:normal;white-space:pre;shape-inside:url(#rect1154)"
         id="text1152"
         aria-label="k-1">
        <path
           id="path1169"
           d="M 791.567 163.843 L 788.54 163.843 L 783.071 157.873 L 781.583 159.289 L 781.583 163.843 L 779.288 163.843 L 779.288 144.847 L 781.583 144.847 L 781.583 157.03 L 788.21 150.208 L 791.105 150.208 L 784.769 156.505 Z" />
        <path
           id="path1171"
           d="M 801.212 156.994 L 793.595 156.994 L 793.595 154.786 L 801.212 154.786 Z" />
        <path
           id="path1173"
           d="M 816.335 163.843 L 806.498 163.843 L 806.498 161.986 L 810.281 161.986 L 810.281 149.803 L 806.498 149.803 L 806.498 148.144 C 807.011 148.144 807.56 148.105 808.145 148.021 C 808.73 147.934 809.174 147.808 809.474 147.643 C 809.849 147.439 810.143 147.184 810.353 146.875 C 810.575 146.557 810.701 146.134 810.734 145.606 L 812.624 145.606 L 812.624 161.986 L 816.335 161.986 Z" />
      </g>
    </g>
    <g
       data-id="box9"
       id="g1301">
      <path
         d="M 844.532 109.754 L 934.532 109.754 L 934.532 199.754 L 844.532 199.754 Z"
         style="fill:#bee4fd;fill-opacity:1;stop-color:#000000;stroke:#3e4837;stroke-dasharray:none;stroke-miterlimit:4;stroke-opacity:1;stroke-width:5.95314"
         id="rect2776" />
      <g
         style="fill:#cccccc;stroke:#000000;stroke-dasharray:none;stroke-miterlimit:4;stroke-opacity:1;stroke-width:0.0"
         id="g2852">
        <path
           id="path2843"
           d="M 934.532 109.753 L 842.81 199.753"
           style="fill:#cccccc;stroke:#000000;stroke-dasharray:none;stroke-linecap:butt;stroke-linejoin:miter;stroke-miterlimit:4;stroke-opacity:1;stroke-width:0.0">
          <path
             style="fill:#cccccc;stroke:#000000;stroke-dasharray:none;stroke-linecap:butt;stroke-linejoin:miter;stroke-miterlimit:4;stroke-opacity:1;stroke-width:0.0"
             d="M 842.81 109.753 L 934.532 199.753"
             id="path2847" />
        </path>
      </g>
      <path
         id="path907"
         d="M 844.532 109.754 C 874.532 139.755 904.532 169.755 934.532 199.754"
         style="fill:#cccccc;stroke:#000000;stroke-dasharray:none;stroke-linecap:butt;stroke-linejoin:miter;stroke-miterlimit:4;stroke-opacity:1;stroke-width:0.0" />
      <g
         style="font-style:normal;font-variant:normal;font-weight:normal;font-stretch:normal;font-size:8.33333px;line-height:1.25;font-family:sans-serif;-inkscape-font-specification:'sans-serif, Normal';font-variant-ligatures:normal;font-variant-caps:normal;font-variant-numeric:normal;font-variant-east-asian:normal;white-space:pre;shape-inside:url(#rect1160)"
         id="text1158"
         aria-label="k">
        <path
           id="path1166"
           d="M 895.28 163.843 L 892.253 163.843 L 886.784 157.873 L 885.296 159.289 L 885.296 163.843 L 883.001 163.843 L 883.001 144.847 L 885.296 144.847 L 885.296 157.03 L 891.923 150.208 L 894.818 150.208 L 888.482 156.505 Z" />
      </g>
    </g>
  </g>
</svg>
